<?xml version="1.0" encoding="utf-8"?>
<!-- Generator: Adobe Illustrator 22.0.1, SVG Export Plug-In . SVG Version: 6.00 Build 0)  -->
<svg version="1.1" id="Calque_1" xmlns="http://www.w3.org/2000/svg" xmlns:xlink="http://www.w3.org/1999/xlink" x="0px" y="0px"
	 viewBox="0 0 432 432" style="enable-background:new 0 0 432 432;" xml:space="preserve">
<style type="text/css">
	.st0{fill:#0E5A60;}
	.st1{fill:#828068;}
	.st2{fill:#7E2038;}
	.st3{fill:#1E4847;}
	.st4{fill:#AC847B;}
	.st5{fill:#FDECF0;}
	.st6{fill:#C5A36B;}
	.st7{fill:#D0AFA8;}
	.st8{fill:#9AA3AD;}
	.st9{fill:#9A8266;}
	.st10{fill:#91ACBA;}
	.st11{fill:#5C748E;}
	.st12{fill:#313F52;}
	.st13{fill:#96683E;}
	.st14{fill:#E4DDC2;}
	.st15{fill:#DED3C6;}
	.st16{fill:#E7E6E6;}
	.st17{fill:#BFD4DD;}
	.st18{fill:#FCE2DF;}
	.st19{fill:#CD8C56;}
	.st20{fill:#343434;}
	.st21{fill:#5D6F59;}
	.st22{fill:#C49253;}
	.st23{fill:#B88E5C;}
	.st24{fill:#E9A197;}
	.st25{fill:#72968E;}
	.st26{fill:#1B1B1B;}
	.st27{fill:#BD6581;}
	.st28{fill:#F2F2F2;}
	.st29{fill:#3D313B;}
	.st30{fill:#4E5254;}
	.st31{fill:#4B262E;}
	.st32{fill:#B093A5;}
	.st33{fill:#04707D;}
	.st34{fill:#A39BB2;}
	.st35{fill:#E3E1E0;}
	.st36{fill:#020203;}
	.st37{fill:#523F50;}
	.st38{fill:#81434D;}
	.st39{fill:#B58186;}
	.st40{fill:#563138;}
	.st41{fill:#E8B73C;}
	.st42{fill:#EC667A;}
	.st43{fill:#93A5A9;}
	.st44{fill:#A6394D;}
	.st45{fill:#6BC4CD;}
	.st46{fill:#3F6753;}
	.st47{fill:#66976A;}
	.st48{fill:#E3C8BD;}
	.st49{fill:#C8878D;}
	.st50{fill:#AE4043;}
	.st51{fill:#8B9976;}
	.st52{fill:#E7929D;}
	.st53{fill:#1E382B;}
	.st54{fill:#EF787A;}
	.st55{fill:#A81916;}
	.st56{fill:#E04747;}
	.st57{fill:#A5606F;}
	.st58{fill:#6C323C;}
	.st59{fill:#9C6434;}
	.st60{fill:#668CB9;}
	.st61{fill:#485B97;}
	.st62{fill:#F0C872;}
	.st63{fill:#D25215;}
	.st64{fill:#F1E0C6;}
	.st65{fill:#E1CBAC;}
	.st66{fill:#A9937F;}
	.st67{fill:#788A28;}
	.st68{fill:#A3AF32;}
	.st69{fill:#C1292E;}
	.st70{fill:#066938;}
	.st71{fill:#109F3D;}
	.st72{fill:#1861A9;}
	.st73{fill:#E00825;}
	.st74{fill:#F9B03D;}
	.st75{fill:#B4B4B4;}
	.st76{fill:#E52629;}
	.st77{fill:#DDC6A7;}
	.st78{fill:#746458;}
	.st79{fill:#754D24;}
	.st80{fill:#F39323;}
	.st81{fill:#A1AA40;}
	.st82{fill:#DBAD5D;}
	.st83{fill:#8EC045;}
	.st84{fill:#BA9BC9;}
	.st85{fill:#9B7574;}
	.st86{fill:#C68A89;}
	.st87{fill:#DF5564;}
	.st88{fill:#AA353D;}
	.st89{fill:#B75266;}
	.st90{fill:#DB6455;}
	.st91{fill:#975F74;}
	.st92{fill:#804F63;}
	.st93{fill:#FFFFFF;}
	.st94{fill:#CDCCCC;}
	.st95{fill:#A67D52;}
	.st96{fill:#DB8E98;}
	.st97{fill:#F3EED1;}
	.st98{fill:#CCD8B0;}
	.st99{fill:#47663C;}
	.st100{fill:#355129;}
	.st101{fill:#EEBCC5;}
	.st102{fill:#9A9999;}
	.st103{fill:#676767;}
	.st104{fill:#C69C6C;}
	.st105{fill:#4E3B3B;}
	.st106{fill:#D7ACAB;}
	.st107{fill:#CA5A69;}
	.st108{fill:#EC8A9F;}
	.st109{fill:#D4175B;}
	.st110{fill:#828BC5;}
	.st111{fill:#884C64;}
	.st112{fill:#F6B7BB;}
	.st113{fill:#F8D9C4;}
	.st114{fill:#F5CACD;}
	.st115{fill:#F6B1B3;}
	.st116{fill:#F9BFA1;}
	.st117{fill:#9BD2CC;}
	.st118{fill:#83B143;}
	.st119{fill:#959C57;}
	.st120{fill:#60643C;}
	.st121{fill:#C469A5;}
	.st122{fill:#9D8098;}
	.st123{fill:#9E1832;}
	.st124{fill:#BC1821;}
	.st125{fill:#AF5617;}
	.st126{fill:#DB6428;}
	.st127{fill:#FFFFFE;}
	.st128{fill:#141112;}
	.st129{fill:#EEC8A0;}
	.st130{fill:#CA1517;}
	.st131{fill:none;}
	.st132{fill:#B51918;}
	.st133{fill:#918A82;}
	.st134{fill:#878179;}
	.st135{fill:#F39BA4;}
	.st136{fill:#F0818B;}
	.st137{fill:#9F1915;}
	.st138{fill:#AB182A;}
	.st139{fill:#24612B;}
	.st140{fill:#114C25;}
	.st141{fill:#C7495D;}
	.st142{fill:#EBC164;}
	.st143{fill:#F6B6B8;}
	.st144{fill:#A9654E;}
	.st145{fill:#2D1B14;}
	.st146{fill:#CA3B63;}
	.st147{fill:#4A2C22;}
	.st148{fill:#E54967;}
	.st149{fill:#889F63;}
	.st150{fill:#808181;}
	.st151{fill:#8C633A;}
	.st152{fill:#CDAC81;}
	.st153{fill:#977D61;}
	.st154{fill:#423A30;}
	.st155{fill:#3D574A;}
	.st156{fill:#CCCDC9;}
	.st157{fill:#F1866C;}
	.st158{fill:#D8B67C;}
	.st159{fill:#432918;}
	.st160{fill:#D4A479;}
	.st161{fill:#E6C283;}
	.st162{fill:#3C3C3B;}
	.st163{fill:#C6C6C6;}
	.st164{fill:#F4A3A6;}
	.st165{fill:#B2B2B2;}
	.st166{fill:#1D71B8;}
	.st167{fill:#B4DCD3;}
	.st168{fill:#CEE7E1;}
	.st169{fill:#99D0C3;}
	.st170{fill:#3B3835;}
	.st171{fill:#E7CFB3;}
	.st172{fill:#DCC19F;}
	.st173{fill:#D4B188;}
	.st174{fill:#F3B68B;}
	.st175{fill:#F9C19B;}
	.st176{fill:#FCDCC8;}
	.st177{fill:#A68B74;}
	.st178{fill:#CCB295;}
	.st179{fill:#D2B89A;}
	.st180{fill:#3D3329;}
	.st181{fill:#966837;}
	.st182{fill:#A06E3B;}
	.st183{fill:#B57D44;}
	.st184{fill:#13110C;}
	.st185{fill:#D5D4D4;}
	.st186{fill:#9B6228;}
	.st187{fill:#844C16;}
	.st188{fill:#D01419;}
	.st189{fill:#4C2814;}
	.st190{fill:#B71918;}
	.st191{fill:#C11718;}
</style>
<g>
	<g>
		<path class="st104" d="M258,232.7c0.1-1.4,0.3-2.7,0.7-4c0.3-0.9,0.5-1.8,0.8-2.7c0.3-1.2,0.5-2.5,0.6-3.8
			c0.1-1.2,0.3-2.3,0.8-3.4c1.1-2.4,3-3.8,5.7-4.1c2.4-0.3,4.6,0.3,6.6,1.7c1.5,1,3,1.9,4.7,2.6c0.8,0.3,1.6,0.7,2.3,1
			c0.5,0.2,1,0.5,1.5,0.8c2,1.2,2.5,3.4,2.1,5.3c-0.2,1.1-0.7,2-1.3,2.9c-0.9,1.2-2.1,2-3.5,2.3c-0.7,0.1-1.5,0.3-2.2,0.3
			c-0.9,0-1.8,0.1-2.6,0.3c-0.3,0.1-0.7,0.2-1,0.4c-0.7,0.4-1.3,0.9-1.8,1.4c-1.6,1.6-3.4,2.9-5.5,3.7c-1,0.4-2,0.5-3.1,0.5
			c-1.2,0-2.3-0.4-3.2-1.2c-0.8-0.6-1.2-1.5-1.4-2.5C258.1,233.7,258,233.2,258,232.7z"/>
		<path class="st104" d="M257.6,217.1c-1.1,0-2-0.3-2.8-0.7c-1.5-0.9-2.5-2.2-2.9-3.9c-0.1-0.6-0.1-1.2,0-1.7
			c0.3-1.3,1.5-2.2,2.9-2.3c0.7,0,1.4,0.1,2.1,0.3c1.4,0.6,2.6,1.5,3.4,2.8c0.3,0.5,0.5,1.1,0.6,1.6c0.3,1.8-0.8,3.3-2.3,3.8
			C258.2,217,257.8,217,257.6,217.1z"/>
		<path class="st104" d="M252.2,218c0.4,0.1,0.7,0.1,1.1,0.2c0.8,0.2,1.5,0.6,2.2,1c0.4,0.3,0.8,0.7,1.1,1.1
			c0.3,0.4,0.6,0.9,0.8,1.4c0.5,1.3,0.4,2.5-0.4,3.6c-0.3,0.5-0.8,0.8-1.3,1c-2,0.7-3.7,0.2-5.2-1.3c-0.8-0.8-1.3-1.7-1.6-2.8
			c-0.1-0.6-0.1-1.2,0.1-1.7c0.2-0.6,0.6-1.1,1.1-1.5C250.6,218.3,251.3,218.1,252.2,218z"/>
		<path class="st104" d="M270.8,209.6c0-1.1,0.3-2.2,0.8-3.3c0.3-0.6,0.8-1.1,1.4-1.4c1.1-0.5,2.1-0.3,3.1,0.4
			c0.5,0.4,0.9,1,1.2,1.6c0.8,1.9,0.8,3.9-0.1,5.8c-0.5,1.1-1.3,1.7-2.5,1.9c-1.2,0.2-2.7-0.5-3.2-1.7c-0.3-0.7-0.5-1.5-0.6-2.3
			C270.9,210.3,270.9,210,270.8,209.6z"/>
		<path class="st104" d="M269,209.3c0,0.3-0.1,0.6-0.1,1c-0.3,1.6-1.8,2.9-3.5,2.9c-0.5,0-1-0.2-1.4-0.5c-0.9-0.6-1.6-1.5-1.9-2.5
			c-0.3-0.7-0.5-1.5-0.5-2.2c-0.1-0.9,0-1.8,0.4-2.6c0.4-1,1.1-1.6,2.2-1.9c0.6-0.1,1.2,0,1.7,0.2c0.6,0.2,1.1,0.6,1.5,1.1
			C268.5,206,268.9,207.6,269,209.3z"/>
	</g>
	<g>
		<path class="st102" d="M147.3,169.3c1.1-0.8,2.4-1.4,3.6-1.9c0.9-0.3,1.7-0.7,2.6-1c1.2-0.5,2.3-1.2,3.4-1.8
			c1-0.6,2.1-1.2,3.2-1.5c2.6-0.6,4.9,0,6.7,1.9c1.7,1.7,2.6,3.8,2.8,6.3c0.1,1.8,0.4,3.6,0.8,5.3c0.2,0.8,0.5,1.6,0.6,2.5
			c0.1,0.6,0.2,1.1,0.3,1.7c0.3,2.3-1.1,4.1-2.8,4.9c-1,0.5-2,0.7-3.1,0.7c-1.5,0.1-2.8-0.4-4-1.4c-0.6-0.5-1.1-1-1.6-1.6
			c-0.6-0.7-1.1-1.4-1.9-1.8c-0.3-0.2-0.6-0.4-0.9-0.5c-0.7-0.3-1.5-0.5-2.3-0.6c-2.3-0.2-4.4-0.9-6.3-2.1c-0.9-0.6-1.7-1.3-2.3-2.1
			c-0.7-0.9-1.1-2-1-3.2c0-1,0.5-1.9,1.1-2.6C146.5,170,146.9,169.6,147.3,169.3z"/>
		<path class="st102" d="M159.3,159.4c-0.7-0.9-1-1.7-1.1-2.6c-0.2-1.7,0.2-3.3,1.3-4.7c0.4-0.5,0.8-0.8,1.4-1.1
			c1.2-0.6,2.7-0.2,3.6,0.8c0.5,0.5,0.8,1.2,1,1.9c0.4,1.5,0.4,2.9-0.1,4.4c-0.2,0.6-0.5,1.1-0.9,1.5c-1.2,1.4-3.1,1.4-4.4,0.5
			C159.7,159.8,159.5,159.5,159.3,159.4z"/>
		<path class="st102" d="M155.2,155.7c0.2,0.3,0.4,0.6,0.5,0.9c0.3,0.8,0.5,1.5,0.5,2.4c0,0.5,0,1.1-0.2,1.6c-0.2,0.5-0.4,1-0.6,1.5
			c-0.7,1.2-1.7,1.8-3.1,1.9c-0.6,0-1.1-0.2-1.6-0.5c-1.8-1.2-2.4-2.8-2.1-4.9c0.2-1.1,0.6-2.1,1.3-3c0.4-0.5,0.9-0.8,1.4-1
			c0.6-0.2,1.2-0.2,1.9-0.1C154,154.6,154.7,155,155.2,155.7z"/>
		<path class="st102" d="M173.4,165.2c0.9-0.7,1.9-1.2,3.1-1.4c0.7-0.1,1.4-0.1,2,0.2c1.1,0.6,1.6,1.5,1.6,2.7
			c0,0.7-0.2,1.3-0.5,1.9c-1,1.8-2.6,3-4.6,3.5c-1.1,0.3-2.1,0-3-0.8c-0.9-0.8-1.3-2.4-0.7-3.6c0.4-0.7,0.8-1.3,1.4-1.9
			C172.8,165.7,173.1,165.4,173.4,165.2z"/>
		<path class="st102" d="M172.5,163.6c-0.2,0.1-0.5,0.3-0.8,0.5c-1.5,0.8-3.4,0.3-4.4-1c-0.3-0.4-0.5-0.9-0.5-1.4
			c-0.1-1.1,0.2-2.1,0.8-3.1c0.4-0.7,0.9-1.3,1.4-1.8c0.7-0.6,1.4-1.1,2.3-1.3c1-0.3,2-0.1,2.8,0.6c0.5,0.4,0.7,0.9,0.9,1.5
			c0.2,0.6,0.2,1.2,0.1,1.9C174.7,161.1,173.8,162.4,172.5,163.6z"/>
	</g>
	<g>
		<path class="st36" d="M165.5,332.6c1.1-0.9,2.3-1.5,3.6-2.1c0.9-0.4,1.7-0.7,2.6-1.1c1.2-0.5,2.2-1.2,3.3-2c1-0.7,2-1.3,3.2-1.6
			c2.6-0.7,4.9-0.2,6.8,1.7c1.8,1.7,2.8,3.7,3,6.2c0.2,1.8,0.5,3.5,1,5.3c0.2,0.8,0.5,1.6,0.7,2.4c0.2,0.5,0.3,1.1,0.4,1.7
			c0.4,2.3-1,4.2-2.6,5c-1,0.5-2,0.8-3.1,0.9c-1.5,0.1-2.9-0.3-4-1.2c-0.6-0.5-1.2-1-1.7-1.5c-0.6-0.7-1.2-1.3-2-1.8
			c-0.3-0.2-0.6-0.3-0.9-0.5c-0.7-0.3-1.5-0.4-2.3-0.5c-2.3-0.2-4.4-0.7-6.4-1.8c-0.9-0.5-1.7-1.2-2.4-2c-0.8-0.9-1.1-2-1.2-3.2
			c0-1,0.4-1.9,1-2.7C164.7,333.4,165.1,333,165.5,332.6z"/>
		<path class="st36" d="M177.1,322.3c-0.7-0.9-1.1-1.7-1.2-2.6c-0.3-1.7,0.1-3.3,1.1-4.8c0.3-0.5,0.8-0.9,1.3-1.1
			c1.2-0.6,2.7-0.3,3.6,0.7c0.5,0.5,0.8,1.1,1.1,1.8c0.5,1.4,0.6,2.9,0.1,4.4c-0.2,0.6-0.5,1.1-0.8,1.6c-1.2,1.5-3,1.5-4.4,0.7
			C177.5,322.7,177.3,322.4,177.1,322.3z"/>
		<path class="st36" d="M172.9,318.8c0.2,0.3,0.4,0.6,0.5,0.9c0.3,0.7,0.6,1.5,0.6,2.3c0,0.5,0,1.1-0.1,1.6c-0.2,0.5-0.3,1-0.5,1.5
			c-0.6,1.2-1.6,1.9-3,2c-0.6,0.1-1.1-0.1-1.6-0.4c-1.8-1.1-2.6-2.7-2.3-4.8c0.1-1.1,0.5-2.1,1.1-3c0.4-0.5,0.8-0.8,1.4-1
			c0.6-0.2,1.2-0.3,1.9-0.2C171.7,317.8,172.3,318.1,172.9,318.8z"/>
		<path class="st36" d="M191.4,327.5c0.9-0.7,1.9-1.3,3-1.5c0.7-0.1,1.4-0.1,2,0.2c1.1,0.5,1.6,1.4,1.7,2.6c0,0.7-0.2,1.3-0.5,2
			c-0.9,1.9-2.4,3.1-4.4,3.7c-1.1,0.3-2.1,0.1-3-0.6c-0.9-0.8-1.4-2.3-0.8-3.6c0.3-0.7,0.8-1.4,1.3-2
			C190.9,328,191.1,327.8,191.4,327.5z"/>
		<path class="st36" d="M190.5,325.9c-0.2,0.2-0.5,0.4-0.8,0.5c-1.5,0.8-3.4,0.5-4.4-0.8c-0.3-0.4-0.5-0.9-0.6-1.4
			c-0.1-1.1,0.1-2.1,0.7-3.1c0.4-0.7,0.8-1.3,1.4-1.8c0.6-0.6,1.4-1.1,2.2-1.4c1-0.3,2-0.2,2.8,0.5c0.5,0.4,0.8,0.9,0.9,1.4
			c0.2,0.6,0.2,1.2,0.1,1.9C192.6,323.4,191.7,324.8,190.5,325.9z"/>
	</g>
</g>
<g>
	<g>
		<path class="st104" d="M273.1,86.8c-9.5-4.7-13.2-2.5-18.4,1.2c-0.4,0.2-0.8,0.2-1.1-0.1c-6.3-6.6-15.2-11.1-25.3-11.8
			c-5.7-0.4-11.3,0.4-16.3,2.3c0-0.1,0-0.1,0-0.1c-4.2-7.7-4.8-12.9-17.4-13.5c-12.6-0.6-34,28.1-29,33.7
			c4.9,5.4,20.2-15.3,30.6-10.7c0.5,0.2,0.7,0.9,0.3,1.4c-4.6,5.4-7.5,12.1-8,19.6c-1.1,16.4,9.4,34.5,25,40.7
			c0.6,0.3,0.7,1.1,0.2,1.5c0,0,0,0,0,0c-0.2,0.2-0.6,0.2-0.8,0.1c-8-3-15.1-3.3-16.2-0.6c-1,2.4,3.1,6.3,9.4,9.5
			c0.4,0.2,0.6,0.7,0.4,1.1c-1,2.8-1.5,5.9-1.5,9.1c0,2.9,0.4,5.6,1.2,8.1c0,0-0.1,0-0.1,0c-3.6,3.2-13.2,7.2-11,12.2
			s17.5,1.5,24.3,0.8c0,0,0,0,0,0c0.8,0.1,4,0.2,4.8,0c0.1,0,22.1,4.1,24.2-0.8c2-4.7-6.4-8.5-10.3-11.6c-0.3-0.2-0.4-0.6-0.3-0.9
			c0.7-2.4,1.1-4.9,1.1-7.7c0-2.4-0.3-4.7-0.9-6.9c-0.1-0.4,0.1-0.9,0.5-1.1c0.4-0.1,0.7-0.3,1.1-0.4c8.5-3.4,14.5-8.5,13.3-11.3
			c-1.1-2.8-9-2.3-17.5,1.1c-0.9,0.4-1.7,0.7-2.5,1.1c-0.3,0.2-0.7,0.1-1-0.2c-0.1-0.1-0.1-0.1-0.2-0.2c-0.5-0.5-0.3-1.3,0.4-1.5
			c16.4-3.9,29.5-20.5,30.7-36.9c0.1-1.9,0.1-3.8-0.1-5.6c-0.1-0.7,0.8-1.2,1.4-0.8c8.4,5.5,11.7,24.9,17.8,22.8
			C289.3,127.9,284.5,92.4,273.1,86.8z"/>
		<g>
			<path class="st36" d="M226.6,134.6c0-1-1.2-1.9-2.6-1.9s-2.6,0.8-2.6,1.9c0,0.9,1,1.7,2.2,1.8c0.1,1.2,0.1,2.4,0,3.6
				c-0.1,0.6,0.8,0.9,0.9,0.3c0.2-1.3,0.2-2.6,0.1-3.8C225.7,136.2,226.6,135.5,226.6,134.6z"/>
			<circle class="st36" cx="214.8" cy="126.4" r="2.6"/>
			<circle class="st36" cx="233.2" cy="126.4" r="2.6"/>
		</g>
	</g>
	<g>
		<path class="st36" d="M219.1,270.2c10-5,13.6-2.2,19.4,1.8c6.3-7.5,15.8-12.6,26.7-13.4c5.5-0.4,10.7,0.4,15.6,2
			c3.7-7.2,4.8-12,16.9-12.5c12.6-0.6,34,28.1,29,33.7c-4.8,5.4-19.9-14.9-30.3-10.9c4.9,5.5,8.1,12.5,8.6,20.3
			c0.5,7.6-1.5,15.6-5.3,22.6c4.2-0.2,8.8-0.1,13.6,0.6c6.6,1,12.6,2.7,17.6,5l0,0c6.5,0.9,10.8-9.6,14.7-10.2
			c3.9-0.7,0.4,18.4-0.6,24.9l0,0c0,0.5,0,1-0.1,1.5c-0.1,7.5,5.3,30.5,0,31.4c-4.1,0.7-9.9-14.5-12.3-21.1c-0.3,0.1-0.7,0.2-1,0.3
			l0,0c-1.5,2.7,4.7,16.6,0,17.4c-4.3,0.7-8.5-12.3-14.5-15.9c-2.8-0.1-5.7-0.3-8.6-0.7c-3-0.4-6-1.1-8.7-1.8
			c-6.6,1.4-12.5,23.1-18.7,21.8c-3.8-0.8-0.7-12.3,2.5-21.5c-4.3,9.1-9.5,19.9-15.2,19c-6.7-1.1,6.4-25.3,10.2-32c0,0,0,0,0,0
			c-2.5,0.9-5.2,1.4-8,1.6c-20.6,1.4-38.7-18.2-40.1-37.7c-0.2-2.3-0.1-4.6,0.2-6.8c-10.5,2.5-13.8,26.4-20.5,24
			C203,311.2,207.8,275.8,219.1,270.2z"/>
		<g>
			<path class="st28" d="M267,316.2c-0.3-1,0.6-2.1,2-2.6c1.4-0.4,2.8,0,3.1,1c0.3,0.9-0.4,1.9-1.6,2.4c0.2,1.2,0.6,2.3,1.1,3.4
				c0.3,0.5-0.5,1.1-0.8,0.5c-0.6-1.2-1-2.4-1.2-3.7C268.3,317.5,267.2,317.1,267,316.2z"/>
			<circle class="st28" cx="275.8" cy="304.8" r="2.6"/>
			<circle class="st28" cx="258.3" cy="310.4" r="2.6"/>
		</g>
	</g>
	<g>
		<path class="st102" d="M212.9,214.7c-10-5-13.6-2.2-19.4,1.8c-6.3-7.5-15.8-12.6-26.7-13.4c-5.5-0.4-10.7,0.4-15.6,2
			c-3.7-7.2-4.8-12-16.9-12.5c-12.6-0.6-34,28.1-29,33.7c4.8,5.4,19.9-14.9,30.3-10.9c-4.9,5.5-8.1,12.5-8.6,20.3
			c-0.5,7.6,1.5,15.6,5.3,22.6c-4.2-0.2-8.8-0.1-13.6,0.6c-6.6,1-12.6,2.7-17.6,5l0,0c-6.5,0.9-10.8-9.6-14.7-10.2
			c-3.9-0.7-0.4,18.4,0.6,24.9v0c0,0.5,0,1,0.1,1.5c0.1,7.5-5.3,30.5,0,31.4c4.1,0.7,9.9-14.5,12.3-21.1c0.3,0.1,0.7,0.2,1,0.3l0,0
			c1.5,2.7-4.7,16.6,0,17.4c4.3,0.7,8.5-12.3,14.5-15.9c2.8-0.1,5.7-0.3,8.6-0.7c3-0.4,6-1.1,8.7-1.8c6.6,1.4,12.5,23.1,18.7,21.8
			c3.8-0.8,0.7-12.3-2.5-21.5c4.3,9.1,9.5,19.9,15.2,19c6.7-1.1-6.4-25.3-10.2-32c0,0,0,0,0,0c2.5,0.9,5.2,1.4,8,1.6
			c20.6,1.4,38.7-18.2,40.1-37.7c0.2-2.3,0.1-4.6-0.2-6.8c10.5,2.5,13.8,26.4,20.5,24C229,255.7,224.2,220.3,212.9,214.7z"/>
		<g>
			<path class="st36" d="M165,260.7c0.3-1-0.6-2.1-2-2.6c-1.4-0.4-2.8,0-3.1,1c-0.3,0.9,0.4,1.9,1.6,2.4c-0.2,1.2-0.6,2.3-1.1,3.4
				c-0.3,0.5,0.5,1.1,0.8,0.5c0.6-1.2,1-2.4,1.2-3.7C163.7,262,164.8,261.6,165,260.7z"/>
			<g>
				<path class="st36" d="M160.1,249c-1.1,0.8-2,1.2-3.1,0.3c-0.8-0.6-1.5-1.4-1.4-2.5c0.2-1.4-2-1.9-2.2-0.5
					c-0.2,2.1,0.7,3.6,2.4,4.9c1.8,1.3,3.8,0.9,5.4-0.4C162.5,250,161.3,248.2,160.1,249L160.1,249z"/>
			</g>
			<g>
				<path class="st36" d="M177.9,256.4c-1.1,0.8-2,1.2-3.1,0.3c-0.8-0.6-1.5-1.4-1.4-2.5c0.2-1.4-2-1.9-2.2-0.5
					c-0.2,2.1,0.7,3.6,2.4,4.9c1.8,1.3,3.8,0.9,5.4-0.4C180.2,257.5,179,255.6,177.9,256.4L177.9,256.4z"/>
			</g>
		</g>
	</g>
</g>
</svg>
