<?xml version="1.0" encoding="iso-8859-1"?>
<!-- Generator: Adobe Illustrator 19.0.0, SVG Export Plug-In . SVG Version: 6.00 Build 0)  -->
<svg version="1.1" id="Capa_1" xmlns="http://www.w3.org/2000/svg" xmlns:xlink="http://www.w3.org/1999/xlink" x="0px" y="0px"
	 viewBox="0 0 512 512" style="enable-background:new 0 0 512 512;" xml:space="preserve">
<path style="fill:#8FE5DF;" d="M50,502h144c22.091,0,40-17.909,40-40V318c0-22.091-17.909-40-40-40H50c-22.091,0-40,17.909-40,40
	v144C10,484.091,27.909,502,50,502z"/>
<path style="fill:#92E5E0;" d="M318,234h144c22.091,0,40-17.909,40-40V50c0-22.091-17.909-40-40-40H318c-22.091,0-40,17.909-40,40
	v144C278,216.091,295.909,234,318,234z"/>
<g>
	<path style="fill:#DAF6F4;" d="M318,502h144c22.091,0,40-17.909,40-40V318c0-22.091-17.909-40-40-40H318c-22.091,0-40,17.909-40,40
		v144C278,484.091,295.909,502,318,502z"/>
	<path style="fill:#DAF6F4;" d="M50,234h144c22.091,0,40-17.909,40-40V50c0-22.091-17.909-40-40-40H50c-22.091,0-40,17.909-40,40
		v144C10,216.091,27.909,234,50,234z"/>
</g>
<path style="fill:#FE8F8D;" d="M175.991,121.937c11.623-8.129,15.413-23.726,8.337-35.982
	c-7.087-12.274-22.524-16.786-35.387-10.744C147.713,61.081,136.1,50,121.948,50c-14.173,0-25.799,11.114-26.998,25.274
	c-12.851-6.002-28.254-1.485-35.33,10.771c-7.087,12.274-3.275,27.899,8.389,36.018c-11.623,8.129-15.413,23.726-8.337,35.982
	c7.087,12.274,22.524,16.786,35.387,10.744C96.287,182.919,107.9,194,122.052,194c14.173,0,25.799-11.114,26.998-25.274
	c12.851,6.002,28.254,1.485,35.33-10.771C191.467,145.68,187.655,130.056,175.991,121.937z"/>
<circle style="fill:#FFFFFF;" cx="122" cy="122" r="21.18"/>
<path style="fill:#FE8F8D;" d="M443.991,389.937c11.623-8.129,15.413-23.726,8.337-35.982
	c-7.087-12.274-22.524-16.786-35.387-10.744C415.713,329.081,404.1,318,389.948,318c-14.173,0-25.799,11.114-26.998,25.274
	c-12.851-6.002-28.254-1.485-35.33,10.771c-7.087,12.274-3.275,27.899,8.389,36.018c-11.623,8.129-15.413,23.726-8.337,35.982
	c7.087,12.274,22.524,16.786,35.387,10.744C364.287,450.919,375.9,462,390.052,462c14.173,0,25.799-11.114,26.998-25.274
	c12.851,6.002,28.254,1.485,35.33-10.771C459.467,413.68,455.655,398.056,443.991,389.937z"/>
<circle style="fill:#FFFFFF;" cx="390" cy="390" r="21.18"/>
<path d="M194,268H50c-27.57,0-50,22.43-50,50v144c0,27.57,22.43,50,50,50h144c27.57,0,50-22.43,50-50V318
	C244,290.43,221.57,268,194,268z M224,462c0,16.542-13.458,30-30,30H50c-16.542,0-30-13.458-30-30V318c0-16.542,13.458-30,30-30h144
	c16.542,0,30,13.458,30,30V462z"/>
<path d="M462,268H318c-27.57,0-50,22.43-50,50v144c0,27.57,22.43,50,50,50h144c27.57,0,50-22.43,50-50V318
	C512,290.43,489.57,268,462,268z M492,462c0,16.542-13.458,30-30,30H318c-16.542,0-30-13.458-30-30V318c0-16.542,13.458-30,30-30
	h144c16.542,0,30,13.458,30,30V462z"/>
<path d="M192.988,80.955c-7.536-13.054-22.35-19.852-36.878-18.082C150.462,49.276,137.298,40,121.948,40
	c-15.072,0-28.365,9.427-34.099,22.896c-14.597-1.907-29.215,4.854-36.89,18.148c-7.536,13.053-6.019,29.279,2.779,40.979
	c-8.951,11.689-10.402,27.728-2.728,41.021c7.536,13.054,22.342,19.854,36.879,18.082C93.538,194.724,106.702,204,122.052,204
	c15.072,0,28.365-9.427,34.099-22.896c14.598,1.91,29.215-4.854,36.89-18.148c7.536-13.053,6.019-29.279-2.779-40.979
	C199.212,110.287,200.663,94.249,192.988,80.955z M175.72,152.955c-4.383,7.592-14.238,10.542-22.438,6.71
	c-2.962-1.382-6.411-1.231-9.241,0.406c-2.829,1.637-4.679,4.554-4.954,7.811C138.32,176.92,130.838,184,122.052,184
	c-8.767,0-16.247-7.062-17.029-16.077c-0.283-3.256-2.14-6.169-4.973-7.8c-1.54-0.887-3.263-1.334-4.99-1.334
	c-1.449,0-2.901,0.315-4.251,0.949c-8.213,3.855-18.083,0.916-22.477-6.693c-4.383-7.592-2.008-17.601,5.408-22.787
	c2.678-1.873,4.272-4.937,4.269-8.206s-1.604-6.329-4.287-8.197c-7.444-5.182-9.834-15.202-5.441-22.811
	c4.384-7.592,14.24-10.54,22.438-6.71c2.962,1.383,6.412,1.232,9.241-0.406c2.829-1.637,4.679-4.554,4.954-7.811
	C105.68,67.08,113.162,60,121.948,60c8.767,0,16.247,7.062,17.03,16.077c0.283,3.256,2.141,6.168,4.973,7.8
	c2.832,1.63,6.285,1.775,9.241,0.385c8.209-3.854,18.082-0.917,22.476,6.693c4.383,7.592,2.008,17.601-5.408,22.787
	c-2.678,1.873-4.272,4.937-4.269,8.206s1.604,6.329,4.287,8.197C177.723,135.326,180.112,145.346,175.72,152.955z"/>
<path d="M122,90.823c-17.191,0-31.178,13.986-31.178,31.177s13.986,31.177,31.178,31.177s31.178-13.986,31.178-31.177
	S139.191,90.823,122,90.823z M122,133.177c-6.163,0-11.178-5.014-11.178-11.177s5.015-11.177,11.178-11.177
	c6.163,0,11.178,5.014,11.178,11.177C133.178,128.163,128.163,133.177,122,133.177z"/>
<path d="M460.988,348.955c-7.536-13.054-22.35-19.855-36.879-18.082C418.462,317.276,405.298,308,389.948,308
	c-15.072,0-28.365,9.428-34.099,22.896c-14.596-1.907-29.215,4.855-36.89,18.148c-7.536,13.053-6.019,29.279,2.779,40.979
	c-8.951,11.689-10.402,27.729-2.728,41.021c7.538,13.055,22.346,19.854,36.879,18.082C361.538,462.725,374.702,472,390.052,472
	c15.072,0,28.365-9.428,34.099-22.896c14.595,1.907,29.215-4.855,36.89-18.148c7.536-13.053,6.019-29.279-2.779-40.979
	C467.212,378.287,468.663,362.248,460.988,348.955z M443.72,420.955c-4.383,7.591-14.238,10.54-22.438,6.71
	c-2.961-1.382-6.411-1.231-9.241,0.406c-2.829,1.637-4.679,4.554-4.954,7.811C406.32,444.92,398.838,452,390.052,452
	c-8.767,0-16.246-7.062-17.029-16.076c-0.283-3.257-2.14-6.169-4.973-7.801c-1.54-0.887-3.263-1.334-4.99-1.334
	c-1.449,0-2.901,0.314-4.251,0.948c-8.211,3.858-18.084,0.916-22.477-6.692c-4.383-7.592-2.008-17.602,5.408-22.788
	c2.679-1.873,4.272-4.937,4.269-8.205s-1.604-6.329-4.287-8.196c-7.444-5.183-9.835-15.201-5.441-22.811
	c4.383-7.591,14.24-10.539,22.438-6.71c2.962,1.384,6.412,1.232,9.241-0.406c2.829-1.637,4.679-4.554,4.954-7.811
	C373.68,335.08,381.162,328,389.948,328c8.767,0,16.247,7.062,17.03,16.077c0.283,3.256,2.141,6.169,4.973,7.8
	c2.833,1.632,6.285,1.776,9.242,0.385c8.211-3.857,18.081-0.915,22.475,6.693c4.383,7.592,2.008,17.602-5.408,22.788
	c-2.679,1.873-4.272,4.937-4.269,8.205s1.604,6.329,4.287,8.196C445.723,403.327,448.113,413.346,443.72,420.955z"/>
<path d="M390,358.822c-17.191,0-31.178,13.986-31.178,31.178s13.986,31.178,31.178,31.178s31.178-13.986,31.178-31.178
	S407.191,358.822,390,358.822z M390,401.178c-6.163,0-11.178-5.015-11.178-11.178s5.015-11.178,11.178-11.178
	s11.178,5.015,11.178,11.178S396.163,401.178,390,401.178z"/>
<path d="M194,0H50C22.43,0,0,22.43,0,50v144c0,27.57,22.43,50,50,50h144c27.57,0,50-22.43,50-50V50C244,22.43,221.57,0,194,0z
	 M224,194c0,16.542-13.458,30-30,30H50c-16.542,0-30-13.458-30-30V50c0-16.542,13.458-30,30-30h144c16.542,0,30,13.458,30,30V194z"
	/>
<path d="M392.604,55.174c-10.377-0.72-20.275,2.785-27.855,9.861c-7.475,6.977-11.762,16.84-11.762,27.062c0,5.523,4.478,10,10,10
	s10-4.477,10-10c0-4.767,1.921-9.186,5.408-12.441c3.483-3.251,8.048-4.864,12.833-4.529c8.395,0.579,15.162,7.346,15.741,15.742
	c0.401,5.819-2.135,11.373-6.785,14.857C387.356,115.337,380,129.761,380,145.297v0.573c0,5.523,4.478,10,10,10s10-4.477,10-10
	v-0.573c0-9.178,4.438-17.768,12.176-23.565c10.104-7.569,15.617-19.622,14.747-32.24C425.66,71.19,410.906,56.436,392.604,55.174z"
	/>
<path d="M390,168.92c-2.63,0-5.21,1.06-7.07,2.93c-1.86,1.86-2.93,4.43-2.93,7.07c0,2.63,1.069,5.21,2.93,7.07s4.44,2.93,7.07,2.93
	s5.21-1.07,7.069-2.93c1.86-1.86,2.931-4.44,2.931-7.07c0-2.64-1.07-5.21-2.931-7.07C395.21,169.98,392.63,168.92,390,168.92z"/>
<path d="M462,0H318c-27.57,0-50,22.43-50,50v144c0,27.57,22.43,50,50,50h144c27.57,0,50-22.43,50-50V50C512,22.43,489.57,0,462,0z
	 M492,194c0,16.542-13.458,30-30,30H318c-16.542,0-30-13.458-30-30V50c0-16.542,13.458-30,30-30h144c16.542,0,30,13.458,30,30V194z"
	/>
<path d="M124.604,323.174c-10.373-0.707-20.275,2.787-27.855,9.861c-7.475,6.977-11.762,16.841-11.762,27.062
	c0,5.522,4.478,10,10,10s10-4.478,10-10c0-4.768,1.921-9.186,5.408-12.44c3.483-3.252,8.04-4.856,12.832-4.529
	c8.396,0.579,15.163,7.347,15.742,15.742c0.401,5.818-2.135,11.372-6.785,14.856C119.357,383.337,112,397.761,112,413.298v0.572
	c0,5.522,4.478,10,10,10s10-4.478,10-10v-0.572c0-9.179,4.438-17.769,12.177-23.566c10.104-7.569,15.616-19.622,14.746-32.239
	C157.66,339.19,142.906,324.437,124.604,323.174z"/>
<path d="M122,436.91c-2.63,0-5.21,1.069-7.07,2.939c-1.86,1.86-2.93,4.431-2.93,7.07c0,2.63,1.069,5.21,2.93,7.07
	c1.86,1.859,4.44,2.92,7.07,2.92s5.21-1.061,7.069-2.92c1.86-1.86,2.931-4.44,2.931-7.07c0-2.64-1.07-5.21-2.931-7.07
	C127.21,437.979,124.63,436.91,122,436.91z"/>
<g>
</g>
<g>
</g>
<g>
</g>
<g>
</g>
<g>
</g>
<g>
</g>
<g>
</g>
<g>
</g>
<g>
</g>
<g>
</g>
<g>
</g>
<g>
</g>
<g>
</g>
<g>
</g>
<g>
</g>
</svg>
