<?xml version="1.0" encoding="iso-8859-1"?>
<!-- Generator: Adobe Illustrator 19.0.0, SVG Export Plug-In . SVG Version: 6.00 Build 0)  -->
<svg version="1.1" id="Layer_1" xmlns="http://www.w3.org/2000/svg" xmlns:xlink="http://www.w3.org/1999/xlink" x="0px" y="0px"
	 viewBox="0 0 512 512" style="enable-background:new 0 0 512 512;" xml:space="preserve">
<path style="fill:#F7DA70;" d="M141.694,336.659C63.564,336.659,0,273.095,0,194.966c0-35.123,12.947-68.819,36.456-94.881
	c6.489-7.194,17.584-7.766,24.779-1.276s7.766,17.585,1.276,24.78c-17.682,19.603-27.422,44.951-27.422,71.378
	c0,58.782,47.823,106.605,106.605,106.605c9.69,0,17.545,7.855,17.545,17.545C159.238,328.804,151.383,336.659,141.694,336.659z"/>
<path style="opacity:0.1;enable-background:new    ;" d="M141.694,301.57c-13.967,0-27.311-2.704-39.545-7.609
	c-11.035,6.311-20.352,15.269-27.086,26.022c19.874,10.635,42.56,16.677,66.633,16.677c9.69,0,17.545-7.855,17.545-17.545
	C159.238,309.425,151.383,301.57,141.694,301.57z"/>
<path style="fill:#F7DA70;" d="M320.979,495.067L320.979,495.067c-15.807,0-28.62-12.814-28.62-28.62V360.73h57.24v105.717
	C349.598,482.254,336.786,495.067,320.979,495.067z"/>
<path style="fill:#7D7060;" d="M349.598,445.448c-21.123,0-38.246-17.123-38.246-38.246c0-21.122,17.123-38.246,38.246-38.246
	V445.448z"/>
<path style="opacity:0.08;enable-background:new    ;" d="M320.979,495.067L320.979,495.067c-15.807,0-28.62-12.814-28.62-28.62
	V360.73h57.24v105.717C349.598,482.254,336.786,495.067,320.979,495.067z"/>
<path style="fill:#F7DA70;" d="M288.543,283.843H173.025c-42.463,0-76.887,34.424-76.887,76.887v105.717
	c0,15.807,12.814,28.62,28.62,28.62s28.62-12.814,28.62-28.62v-31.373c6.272,1.653,12.855,2.543,19.647,2.543h36.494v28.83
	c0,15.807,12.814,28.62,28.62,28.62l0,0c15.807,0,28.62-12.814,28.62-28.62v-28.87c48.184-0.843,86.991-40.141,86.991-88.527l0,0
	C353.75,313.038,324.556,283.843,288.543,283.843z"/>
<path style="fill:#7D7060;" d="M96.491,353.446c-0.226,2.399-0.353,4.826-0.353,7.285v62.94c19.394,0,35.116-15.722,35.116-35.116
	C131.254,369.278,115.722,353.636,96.491,353.446z"/>
<path style="opacity:0.08;enable-background:new    ;" d="M288.543,283.843H173.025c-20.397,0-38.924,7.957-52.687,20.918
	c22.103,39.884,66.925,67.703,119.534,67.703h110.727c2.041-7.461,3.151-15.305,3.151-23.413l0,0
	C353.75,313.038,324.556,283.843,288.543,283.843z"/>
<path style="fill:#F7DA70;" d="M465.061,18.122l-0.009,0.002c-33.428,8.523-66.029,20.003-97.426,34.286
	c-17.425-4.645-35.793-7.131-54.724-7.131l0,0c-18.932,0-37.3,2.486-54.724,7.131c-31.397-14.284-63.997-25.763-97.426-34.286
	l-0.01-0.002c-24.601-6.272-48.227,13.111-46.885,38.463l0,0c1.867,35.239,6.934,70.233,15.127,104.555
	c-5.885,13.821-10.035,28.5-12.168,43.83l0,0c-10.345,74.35,52.189,140.202,133.139,140.202h125.895
	c80.949,0,143.484-65.852,133.139-140.202l0,0c-2.133-15.329-6.283-30.008-12.168-43.829c8.193-34.323,13.259-69.317,15.126-104.555
	l0,0C513.289,31.233,489.662,11.85,465.061,18.122z"/>
<g>
	<path style="fill:#4A5058;" d="M231.399,193.183c-4.497,0-8.142-3.645-8.142-8.142v-12.975c0-4.496,3.644-8.142,8.142-8.142
		c4.497,0,8.142,3.645,8.142,8.142v12.975C239.54,189.538,235.896,193.183,231.399,193.183z"/>
	<path style="fill:#4A5058;" d="M394.4,193.183c-4.497,0-8.142-3.645-8.142-8.142v-12.975c0-4.496,3.644-8.142,8.142-8.142
		c4.497,0,8.142,3.645,8.142,8.142v12.975C402.541,189.538,398.897,193.183,394.4,193.183z"/>
</g>
<path style="fill:#EDBCB9;" d="M284.615,223.892v56.149c0,15.621,12.663,28.285,28.285,28.285c15.621,0,28.285-12.664,28.285-28.285
	v-56.149L284.615,223.892z"/>
<path style="opacity:0.1;enable-background:new    ;" d="M312.899,282.378c-4.497,0-8.142-3.645-8.142-8.142v-46.44
	c0-4.496,3.644-8.142,8.142-8.142c4.497,0,8.142,3.645,8.142,8.142v46.44C321.041,278.733,317.397,282.378,312.899,282.378z"/>
<path style="fill:#F7DA70;" d="M360.243,263.901c-36.695,0-47.343-26.153-47.343-37.348c0,11.195-10.648,37.348-47.343,37.348
	l-22.702-65.543h140.089L360.243,263.901z"/>
<path style="fill:#F4B759;" d="M453.035,59.279l-0.004,0.001c-15.411,3.93-30.429,9.265-44.866,15.938
	c-6.781,3.135-8.646,11.907-3.727,17.529l0,0c13.197,15.081,28.795,27.878,46.164,37.874c6.475,3.727,14.715,0.183,16.463-7.08
	l0.001-0.005c3.723-15.461,6.022-31.232,6.863-47.115C474.529,65.123,463.999,56.483,453.035,59.279z"/>
<path style="fill:#7D7060;" d="M160.748,18.124l-0.01-0.002c-15.454-3.941-30.519,2.247-39.255,13.675
	c6.058,27.489,30.549,48.061,59.859,48.061c25.001,0,46.493-14.973,56.035-36.433C212.459,33.238,186.856,24.781,160.748,18.124z"/>
<path style="fill:#F4B759;" d="M151.87,76.421L151.87,76.421c0.841,15.882,3.138,31.652,6.863,47.115l0.001,0.005
	c1.749,7.263,9.988,10.807,16.463,7.08l0,0c17.37-9.995,32.968-22.792,46.165-37.874l0,0c4.92-5.622,3.055-14.394-3.727-17.529l0,0
	c-14.437-6.674-29.454-12.009-44.866-15.938l-0.004-0.001C161.801,56.483,151.271,65.123,151.87,76.421z"/>
<g>
	<path style="fill:#4A5058;" d="M341.211,215.128l-6.589,7.848c-11.335,13.5-32.109,13.5-43.445,0l-6.589-7.848
		c-3.396-4.044-0.521-10.212,4.759-10.212h47.105C341.732,204.917,344.607,211.085,341.211,215.128z"/>
	<path style="fill:#4A5058;" d="M169.953,244.066c-4.06,0-7.574-3.033-8.072-7.167c-0.538-4.464,2.642-8.52,7.107-9.059
		l45.475-5.493c4.475-0.543,8.52,2.642,9.06,7.106c0.538,4.464-2.643,8.52-7.107,9.059l-45.475,5.493
		C170.607,244.046,170.277,244.066,169.953,244.066z"/>
	<path style="fill:#4A5058;" d="M188.698,291.914c-2.414,0-4.804-1.068-6.409-3.114c-2.777-3.537-2.16-8.655,1.378-11.432
		l36.028-28.285c3.537-2.778,8.655-2.16,11.431,1.376c2.777,3.537,2.16,8.655-1.376,11.432l-36.029,28.285
		C192.229,291.347,190.456,291.914,188.698,291.914z"/>
	<path style="fill:#4A5058;" d="M455.847,244.066c-0.327,0-0.655-0.02-0.987-0.06l-45.475-5.493
		c-4.464-0.54-7.645-4.595-7.107-9.059c0.54-4.465,4.606-7.647,9.06-7.106l45.475,5.493c4.464,0.54,7.645,4.595,7.107,9.059
		C463.42,241.032,459.907,244.066,455.847,244.066z"/>
	<path style="fill:#4A5058;" d="M437.101,291.914c-1.76,0-3.531-0.568-5.023-1.738l-36.027-28.285
		c-3.537-2.777-4.152-7.895-1.376-11.432c2.778-3.537,7.894-4.151,11.432-1.376l36.027,28.285c3.537,2.777,4.152,7.895,1.376,11.432
		C441.904,290.845,439.515,291.914,437.101,291.914z"/>
</g>
<g>
</g>
<g>
</g>
<g>
</g>
<g>
</g>
<g>
</g>
<g>
</g>
<g>
</g>
<g>
</g>
<g>
</g>
<g>
</g>
<g>
</g>
<g>
</g>
<g>
</g>
<g>
</g>
<g>
</g>
</svg>
