<?xml version="1.0" encoding="UTF-8"?>
<svg width="327.56" height="283.64" enable-background="new 0 0 327.557 283.643" viewBox="0 0 327.557 283.643" xmlns="http://www.w3.org/2000/svg">
 <g fill-rule="evenodd">
  <path d="m301.84,206.25c-3.319,0 9.847.884 14.605-4.979 5.863-7.082 3.651-7.082 1.881-6.64-.221-9.848 12.171-13.388 8.408-21.688-.22,2.877-2.543,3.099-3.982,2.434 1.659-2.655-1.549-3.761-.663-5.643-.886.665-1.771,1.217-1.106,3.209 1.217,11.287-19.254,16.045-19.806,27.221l.67,6.09z" stroke="#000" stroke-linecap="round" stroke-linejoin="round" stroke-miterlimit="2.4142" stroke-width=".216"/>
  <path d="m41.818,35.627c-6.638,3.208-14.384,6.528-16.266,13.61-5.311,5.864-10.622,14.052-18.035,17.372-2.324.663-8.962,4.646-7.192,10.069 .221.885 3.32,6.86 4.979,7.303-.664,1.549-.553,6.528 2.102,8.962 2.988,2.214 2.213-4.094 1.992-1.771-.554,7.193 24.454,13.5 31.868,11.396 1.106-1.327 12.171-.219 13.277-1.549l12.06,12.171 25.782-79.998-28.657-13.167-21.91,15.602z" fill="#cb8c53" stroke="#000" stroke-linecap="round" stroke-linejoin="round" stroke-miterlimit="2.4142" stroke-width=".648"/>
  <path d="m10.726,83.095c3.873,5.754 15.049,11.065 20.581,5.312 2.766-2.877 3.099-8.741 2.766-11.949-.441-4.094-9.072-3.874-11.507-.886-2.657,2.986-6.751,6.306-11.84,7.523z" fill="#b77f4b"/>
  <path d="m5.635,68.046c.886.222 5.09-1.549 5.312.774 2.324-3.54 12.061-13.498 16.597-14.605-1.992-.663-1.217-2.877-1.549-4.094-6.417,6.197-12.392,15.491-20.36,17.925z" fill="#a27042"/>
  <path d="m42.372,60.081c2.103-.886 3.431-2.877 2.877-4.206-.443-1.548-3.541,2.325-5.754-.442-1.217-.443-1.992,2.103-1.549,3.542 .554,1.437 2.323,1.991 4.426,1.106z" fill="#fff"/>
  <path d="m64.391,58.2c4.646,5.42 15.603-5.202 15.269-7.193-4.314,3.651-8.187,5.2-12.392,3.651-.665-.22-2.214,2.214-2.877,3.542z" fill="#a27042"/>
  <path d="m70.254,29.652c7.082-1.439 6.308,2.986 8.742,7.634l.111,5.2c0-3.098-7.082-7.634-8.853-9.515 0-1.216.443-2.433 0-3.319z" fill="#a27042"/>
  <path d="m107.99,263.56c4.979-7.968.442-19.917-1.217-27.773-2.766-13.277 10.511-27.22 4.978-40.056 .554,0 9.405.665 8.853,0 10.069,21.91-8.853,39.502-8.853,59.53-.995,1.106-2.766,7.856-3.318,7.191 2.323,1.217 3.872-1.217 5.532-1.769 3.873-1.882 7.191,1.769 10.511,1.769 2.767-2.986 7.746-1.217 10.069,1.217l1.659-1.77h2.214l.995,1.217c0-.665.665-3.099.665-4.316-1.66-9.072 2.212-20.58 5.531-29.1 .555-1.771 2.767-4.757 3.32-6.639 3.319-9.072 2.766-23.015 9.405-30.317 23.899-2.545 12.503-2.325 27.773-7.746 6.528-2.323 21.908-15.048 29.543-19.806 1.549,4.869 3.873,20.358 5.2,23.9 1.659,1.77 3.762,7.303 4.316,10.29 4.426,16.376 2.212,37.621-3.874,52.781-1.106,3.098-5.532,6.638-5.532,10.289 1.66-.552 4.98-.552 6.639,0 1.107-.552 3.873-1.217 5.533-1.217 2.212,2.434 8.852,1.217 12.282,1.217l.995-1.217c3.431-9.626 11.619-23.568 9.405-35.186-2.103-10.843-4.426-21.799-1.66-33.305 2.325-9.074 4.979-16.93 4.979-27.331l1.218-1.106c7.082-18.811 4.426-42.377-2.767-59.973-.996-2.765-3.873-3.65-3.873-5.973-4.868-10.511-18.81-19.031-15.601-17.594-4.979-2.434-8.854-2.434-14.385-3.651-6.64-1.217-19.363-3.651-26.003-1.88-7.191,1.88-18.368-1.107-25.45-1.107-1.105-1.217-12.724-4.426-14.383-5.089-27.994,34.854-45.81,72.252-73.804,107-18.478-2.766 1.882,41.494 1.328,39.723l2.214,15.823c0,2.988 1.658,7.193 2.212,9.737 1.106,6.64-2.212,12.504-1.771,18.479-2.101,1.217-11.286-1.217-17.924,9.737-2.877,2.766 2.434,6.417 5.2,6.417-5.091,4.648 7.414,9.185 9.737,4.094 7.414,7.525 12.503-3.651 24.454-5.643 0-4.63 1.99-8.72 3.65-10.83z" fill="#cb8c53" stroke="#000" stroke-linecap="round" stroke-linejoin="round" stroke-miterlimit="2.4142" stroke-width=".216"/>
  <path d="m111.75,195.73c.554,0 9.405.665 8.853,0 10.069,21.91-8.853,39.502-8.853,59.53-1.77,3.431-4.093,9.626 2.214,5.422 .222-.665 6.859-30.54 14.385-41.494 5.975-8.742-4.537-12.171 1.326-28.327-1.1-4.31-24.45,3.55-17.92,4.87z" fill="#b77f4b"/>
  <path d="m107.99,263.56c4.979-7.968.552-19.917-1.108-27.773-2.766-13.277 10.402-27.22 4.869-39.945l-6.638-7.856c-18.588-2.766-13.72,29.544-13.72,29.544l2.212,15.822c0,2.988 1.88,7.192 2.213,9.626 1.327,8.742-7.082,12.725-12.836,16.819-2.212,1.217-11.397-1.217-18.035,9.737-2.768,2.766 2.434,6.417 5.2,6.417-5.091,4.648 7.523,9.185 9.848,4.094 7.303,7.525 12.503-3.651 24.342-5.643 .01-4.64 2-8.84 3.66-10.84m50.34-70.81c24.564-2.766 12.503-2.325 27.773-7.746 6.528-2.323 21.908-14.937 29.543-19.806-31.425,14.605-31.425-19.033-55.768-1.328 1.45,2.11.23,18.26-1.54,28.89m82.21-25.34c10.18,8.299-.332,22.13-.886,41.825 .554,19.032 6.971,25.119.442,53.222l1.106-1.217c6.75-7.303 11.729-23.568 9.517-35.075-2.214-10.954-4.537-21.91-1.66-33.417 2.103-9.074 4.868-16.93 4.868-27.331l1.218-1.217c7.082-18.7 4.426-42.155-2.767-59.75-.996-2.875-3.873-3.65-3.873-6.084-4.868-10.511-18.81-18.922-15.601-17.594-4.868-2.434-18.922-7.303-14.385-3.651 32.42,26.569-23.56,72.039 22.02,90.299m-22.02-90.29c-5.312-1.438-19.363-3.651-26.003-1.771-7.303,1.771-18.257-1.217-25.45-1.217-1.105-1.217-11.175-2.435-13.388-.664 2.545,40.166-7.855,29.432-5.2,39.391 22.351-.444 32.198,18.366 51.341-1.108 6.64-15.93 27.22-26.11 18.7-34.63" fill="#b77f4b"/>
  <path d="m38.167,59.527c-2.435,1.548-3.541,6.085-3.209,8.631 0,10.18 18.59,11.508 21.909,5.2 2.434-4.869.665-4.646-.221-9.072-5.975,3.208-18.369,6.86-18.479-4.759z" fill="#a27042"/>
  <path d="m71.03,41.712c-1.55.997-3.43,4.648-3.43,6.418 1.106,2.656 5.754,2.766 7.525,1.991 .332-.22 1.88-1.991 1.88-2.543-1.549-1.439-2.434.332-3.983-.443-1.992-1.549 0-5.091-1.992-5.423z" fill="#a27042"/>
  <path d="m40.269,55.875c-.552,1.329-.552,3.542.442,4.869 .332-1.769.111-2.877.997-3.651-.665-.221-1.107-.664-1.439-1.218m-39.502,18.479c.553,0 2.655,1.438 3.762,1.66 1.659-1.771 1.328-1.549 3.319.109 .554-.552 3.542-1.217 4.094-1.217 1.992,0 1.66.443 1.66,1.993-1.217,2.212-3.099,4.646-5.864,6.195-1.217,0-2.545-.774-4.205-2.544-1.217-1.216-2.766-3.761-2.766-6.196"/>
  <path d="m216.75,259.14c3.542-4.094 5.091-8.742 6.197-12.394 3.873-10.291 7.745-29.654-.554-38.837 0-15.16-6.418-38.618-6.749-42.711-3.541,1.658-19.585,14.715-29.543,19.806 0,22.351 20.802,35.076 20.802,58.754-3.431,3.542-3.984,10.291-6.971,13.942-10.622-.111-17.373-1.106-17.373,12.06 .223,3.099 6.861,1.882 6.861,1.882 .553.663 2.213,2.766 3.762,2.766 2.103.443 6.971-.663 8.077-1.88 1.659,1.88 7.524-.665 7.524-.665 0-2.435 3.098-8.852 7.191-9.626-.22-.99-.66-.99.77-3.09z" fill="#a27042" stroke="#000" stroke-linecap="round" stroke-linejoin="round" stroke-miterlimit="2.4142" stroke-width=".216"/>
  <path d="m241.98,276.73c2.214-7.191 1.328-10.623-1.77-14.163-2.103,0-6.308.442-7.968.442-1.77-.22-4.203-1.106-4.757-1.771l-5.2,1.217c-2.104-.22-4.206-.552-6.309.111-3.651.665-5.421,3.874-6.749,6.86-.442.997-.774,5.091 0,5.976 1.106.995 2.103,3.651 6.197,3.872 3.761.111 4.314-3.32 4.868-2.323-.111,2.103 4.426,2.877 8.077,1.328 3.651,0 4.315-2.103 6.418-2.103 3.32,2.42 5.2,3.09 7.19.54z" fill="#a27042" stroke="#000" stroke-linecap="round" stroke-linejoin="round" stroke-miterlimit="2.4142" stroke-width=".216"/>
  <path d="m104.22,275.96c1.106,3.651 4.537,2.103 5.422-.221-2.434,6.417 10.4,6.417 12.172,4.646l1.217-1.66c-1.771,5.976 11.065,7.193 12.503-.995 1.217.664-.886,3.208-.442,3.872 1.549,1.328 5.422.554 7.082-.884 1.438-5.534-1.217-16.708-2.546-17.705-1.105-1.328-3.097-2.323-4.757.554-3.32-1.549-4.979-4.98-10.513-.774-6.307-2.214-5.864-3.542-10.4-1.771-2.877.885-2.655,2.213-5.2,1.66-3.2,3.09-4.53,9.28-4.53,13.27z" fill="#a27042" stroke="#000" stroke-linecap="round" stroke-linejoin="round" stroke-miterlimit="2.4142" stroke-width=".216"/>
  <path d="m238.11,271.09c1.328,2.545 2.323,4.537 1.549,7.082l-1.549-.111c.995-2.655-2.435-6.749-2.214-8.077 .55-2.1 2.21,1.11 2.21,1.11m-11.07-1c0-1.217 2.546-1.66 2.214-.665-2.214,3.874-1.66,6.308-1.882,9.185l-2.435.443c-1.21-4.3.22-5.74 2.1-8.95m-8.18-2.1h-.442c0,1.769-1.881,2.103-2.986,3.098-2.877,2.766-1.882,7.856-1.882,7.856 .664.221.774.221 1.107.221 0-2.435.774-4.979 1.88-6.971 .88-1 3.2-.56 2.32-4.21m-12.62-2.32c-1.881.995-2.435,5.863-.886,7.412 .442-.109.554-.221.996-.221 0-2.323.443-4.868.443-6.971-.22,0-.44,0-.55-.22m-8.85-.45c-.664,0-.997.109-1.549.109-2.877,4.094-1.549,5.643-1.549,9.185l1.438-.111c-.66-5.98 2.44-7.97 1.66-9.19m-11.73,2.33c-.665,1.217-1.771,3.098-.665,4.205l.885.11c.886-1.106.774-2.323.774-3.872-.43-.01-.88-.34-.99-.45m-47.8,5.2c-.774-.885-1.66-.885-1.991.111 0,2.766 1.439,6.417 2.434,9.294 1.106-.221.886-.221 2.435-.554-.89-2.88-2.66-5.87-2.88-8.85m-8.08,10.62c0-1.88-.553-4.315-1.549-6.306-.663-1.439-.774-5.754-1.771-3.431 .333,2.214.554,5.975.554,9.737 .78,0 1.11.33 2.77,0m-14.71-2.1c.886.111 1.66.111 2.768.111 0-2.766-1.328-5.09-1.328-8.077-.554-.554-1.106-1.549-1.991-.554 0,2.76.22,5.75.55,8.52m-9.52-3.43c.885.332 1.549.332 2.103-.111 .884-.997 1.881-8.299 1.77-8.52-.442,0-.995.221-1.217.552-.32.88-2.98,6.42-2.65,8.08m-15.268,2.98c-1.88-2.323-2.655-1.77.554-4.537-.554-1.217.332-2.987-1.328-2.987-.552.552-.663,1.549-.663,2.434-.886.995-2.988,4.315-.886,5.312 .332.109.886.109.997.552 .331-.09 1.106-.64 1.326-.76m-20.359-4.86c.554-4.426 4.648-4.094 7.082-6.638-.663-.333-1.992.441-2.656.663-3.541,1.33-4.647,2.66-4.426,5.98m7.636,5.97c-2.434-2.103-.111-5.976 4.093-8.631 .665.995.222.332.222,1.106 0,0-5.423,3.87-4.315,7.52m-12.948-8.96c1.328-2.435 2.988-5.312 5.865-5.865l.332.221c.332.776-3.54,2.214-3.54,3.431-.111,0-.886.554-.886.554 .221,1.217-.663,1.992-.663,2.877-.333-.22-.886-1.1-1.108-1.21"/>
  <path d="m188.98,271.42c-2.325-2.544-1.882-2.877-.222-7.413 .554-1.55 3.54-3.762 4.757-4.316 2.325-1.106 4.648-1.438 7.414-1.438 .554-.443 1.328-2.877 1.991-3.542-.109,0 1.439-3.983 1.439-1.769-.332.442-.442,2.877-.111,3.32-.331,0 3.983-3.209 3.983-3.209 .554,1.327-.663,2.875-.663,4.204-.443.332-2.214.665-2.214,1.328 1.107,0 2.214.111 3.209.886-1.106,1.327-4.093,1.992-3.983,3.208 1.66,1.66 4.647.664 6.308,0 .886-.442 1.217-1.991 1.549-2.766 .332-1.882 2.103-1.66 3.209-1.329-.221,5.643-2.767,1.992-5.2,7.192l-2.877,5.976c-1.439-1.55-1.66-3.099-.111-4.869 0-5.533-5.754,2.435-5.643,2.435-1.106-1.328.222-3.985 1.105-5.091 0-1.328-1.88-1.991-2.654-2.877-1.106,0-8.742-2.434-6.309,3.874v1.438c-.663-.221-.884-.886-.884-1.549-1.107-1.217-3.21-.222-3.762,1.217-.47,1.22-.69,3.54-.36,5.09z" fill="#b87513"/>
  <path d="m6.742,92.832c0,.665-1.881,8.52.443,5.09 0,4.204-.333,8.298 1.328,11.84 0-.667.221-2.768.221-3.32 .553,1.771 1.327,5.973 2.987,7.855 0-1.215-.553-3.32.111-3.872 0,.552 1.992,4.758 1.992,6.529 0-.556 2.103-3.209 2.103-4.316l.774,3.983c0-1.215 2.102-3.098 2.102-4.313l.664,4.091c1.217-.663 2.877-2.542 2.324-4.202 1.106.664 2.102,1.327 2.102,2.987l.664-3.32 1.106,2.212c1.771-.774.997-2.764 1.66-2.764 .554-.664 1.328.111 2.434.111l.886-3.208 .995,2.434c0-1.107.665-2.656 1.217-3.875l.997,1.993c0-.552.664-1.993.664-2.656 .554,0 .885,1.438 1.439,1.438 0-1.104.774-3.208.774-3.872 .554,0 .664,2.212 1.217,2.212l1.217-3.098c-7.191,1.219-27.773-4.756-29.433-10.067-2.435,1.106.885.774-2.988.109z" fill="#c0854e" stroke="#000" stroke-linecap="round" stroke-linejoin="round" stroke-miterlimit="2.4142" stroke-width=".216"/>
  <path d="m21.569,100.24c-2.435,4.427-.443,10.07 2.213,12.727-.774-3.098-.996-7.083-.553-9.296l2.434,9.515-.332-6.528 1.106,4.316 .886-.996 2.213.996-1.993-6.195 2.213,4.205 .443-2.104 1.106,1.33 .111-2.104 1.217.774 .554-1.771 .664,2.545 .885-3.32 1.217,1.549 .886-2.765c-4.868-.55-10.179-1.44-15.27-2.88m23.348.78c3.319-2.101 8.188-11.948 15.934-15.268 .221-1.66-.997-3.651-2.103-5.643-.997-1.55-23.9-5.754-23.9,5.421 7.744,3.762 7.855,4.204 10.069,15.49m19.585-52.005c-.665,2.323-3.984,1.549-3.984,4.094 1.107,1.328 4.647-.111 3.319,2.656l.443.441c1.771,0 2.323-2.323 2.323-3.761 1.107-1.217 5.091.221 4.205-2.213-7.414-.774-.111-7.856-.111-10.4-9.294,0-5.643-5.533-1.438-8.631-.332-.332-.554-.554-.885-.664-1.771,1.88-5.2,4.426-5.864,7.303-.996,4.204 1.992,7.413 1.992,11.175m-19.807,6.528 8.299-.774c-2.323,3.098-2.766,8.077-6.749,9.737-2.103.885-5.865-.443-5.865-3.541 3.32.553 8.963-3.651 4.315-5.422m-14.274-8.52c-.995,2.655-1.992,4.537-.995,6.86 2.212.665 7.414.665 9.074-1.328 1.106,5.202 11.286.554 14.272.665 8.41,7.414 10.07-9.294 8.188-15.713-2.434-2.766-5.975-9.294-9.183-7.523-3.32,1.771-18.589,9.183-21.356,17.039m6.085,10.844c-2.875,1.882-4.646,2.434-8.298,1.55-1.106,2.435-2.103,5.975-1.106,8.741 .221.663 2.101,2.213 2.655,2.213l.222-.111c.221-3.763 2.987-9.737 6.638-11.84 .001-.442-.111-.442-.111-.553" fill="#b77f4b"/>
  <path d="m271.75,198.28c7.856,3.32 12.614,3.651 20.691,3.32 1.107-1.217 9.517-1.438 8.963-2.103 0,.665.554,1.882.554,3.099h2.323c0,.552-.553,1.217-.553,1.77h2.102c-.995,0-3.318,1.217-3.872,1.882-19.143,1.327-42.379,2.877-51.784-18.368 .664-1.882 3.873-14.605 3.982-22.462 3.65,7.19 6.97,28.43 17.6,32.86z" fill="#a27042" stroke="#000" stroke-linecap="round" stroke-linejoin="round" stroke-miterlimit="2.4142" stroke-width=".216"/>
  <path d="m301.96,206.25c-19.143,1.327-42.379,2.877-51.784-18.368 .664-1.882 3.873-14.605 3.982-22.462-4.1,47.36 49.57,39.61 47.8,40.83z" fill="#a25802"/>
  <path d="m186.22,185c0,1.77 4.094,3.872 2.656,8.409 12.835,3.099 5.975,16.708 13.168,24.564 1.217,0 5.753,3.209 6.307,3.209-1.106,5.422 2.877,16.597 7.413,17.593 2.546,7.413 2.987,14.384 4.426,15.269 1.438-1.771 5.423-15.602 5.865-17.925 1.218-5.532-3.099-12.392-4.87-16.708-3.208-9.072.776-21.245-.995-30.871-1.438-7.414-2.656-15.159-4.647-23.125-7.76,4.42-20.37,15.49-29.33,19.58z" fill="#a25802"/>
  <path d="m22.122,84.423c.996,0 .996-1.438 0-1.438-.885,0-.996,1.438 0,1.438m5.201,5.311c.997,0 .997-1.549 0-1.549-.885.001-.996,1.549 0,1.549m3.874-2.102c.884,0 .884-1.438 0-1.438-.997,0-.997,1.438 0,1.438m-3.874-2.655c.997,0 .997-1.548 0-1.548-.885-.001-.996,1.548 0,1.548m4.758-1.771c.886,0 .886-1.438 0-1.438-.996,0-.996,1.438 0,1.438m-2.766-3.872c.996,0 .996-1.439 0-1.439-.886,0-.886,1.439 0,1.439m-4.537.221c.885,0 .885-1.438 0-1.438-.996,0-.996,1.438 0,1.438m-4.094.885c.996,0 .996-1.549 0-1.549-.885,0-.885,1.549 0,1.549m-2.877,3.32c.996,0 .996-1.439 0-1.439-.885-.001-.885,1.439 0,1.439m1.328,4.314c.885,0 .885-1.438 0-1.438-.996.001-.996,1.438 0,1.438m-3.652-1.217c.885,0 .885-1.438 0-1.438-.995,0-.995,1.438 0,1.438m-1.216-3.983c.885,0 .885-1.439 0-1.439-.996,0-.996,1.439 0,1.439m2.877-3.319c.885,0 .885-1.549 0-1.549-.997,0-.997,1.549 0,1.549m5.642,9.847c.332,0 .664-.442.664-.774 0-.443-.332-.774-.664-.774s-.664.332-.664.774c0,.332.332.774.664.774"/>
  <path d="m30.643,106.22c-1.439-5.976-.554-11.506-5.312-16.375-.554,0-1.771-.554-2.324-.885 .774.332 1.438,1.771 1.992,2.323 0,1.106 0,2.766.332,3.651m13.721,15.486v-1.107c-1.992-8.73-4.758-20.572-14.052-24.224-.554-.332-1.992-.884-2.546-.884 3.652-.774 4.98,5.42 6.418,7.634m12.503,9.074c0-.885-.664-1.993-.664-2.877-3.983-3.985-5.643-10.402-12.945-9.074 3.431-.222 5.865,2.545 5.865,5.089m22.572-2.765c-5.311-5.421-17.703-5.643-24.454-4.537 3.099-.221 6.197.886 8.742,3.431m23.568,1.328c0-.222-.222-.774-.222-.774l-.332-.333c-10.954-6.195-22.794-6.417-36.071-6.417 4.315-.332 9.294,4.979 11.949,7.525m20.471-7.303c-1.438-.222-3.32-1.66-4.757-1.992-7.303-1.328-15.491.332-22.573.332 3.208-1.992 9.074-1.107 12.725-2.877m22.019-3.874c-.332,0-.665-.332-.886-.332-9.848-2.766-22.24-2.545-31.756.885-1.438.554-3.208.886-4.537,1.66 2.766,0 5.312.552 8.188.552m-12.171-29.32c-3.098-3.099-2.324-6.971-2.324-10.956m-4.979,9.074c3.873,0 6.75,4.426 10.069,6.417-4.094-2.766-4.758-6.195-4.758-10.511m3.32,2.325c-.222-2.545.332-3.874 1.992-5.645m-2.214,1.994c-1.66,3.651-1.106,6.527 1.66,9.294-.443-3.874.885-6.75 3.431-9.294" fill="none" stroke="#000" stroke-linecap="round" stroke-linejoin="round" stroke-miterlimit="2.4142" stroke-width=".072"/>
  <path d="m158.55,192.42c-1.106-8.52 3.542-16.819.775-25.007-1.992-6.197-3.762-9.406-2.987-15.491 1.991-2.766 5.754-12.946 5.754-11.729 5.421-5.754 2.654-15.158 2.654-21.134 6.751,8.852-.995,25.891-2.654,34.302-.443,4.314-1.549,10.289-1.549,15.158 1.12,10.17-.76,14.49-1.98,23.9z" fill="#a27042"/>
  <path d="m48.568,137.76c-.554,1.217-1.106,2.323-1.66,2.988v2.434c7.081-7.082 2.103,1.549 2.766,2.987 5.754-7.413 1.106.997 1.106,2.988 1.107-.663 2.214-2.434 2.768-2.988 .552,1.771-2.103,6.085-2.103,9.185 1.549-5.311 10.18-3.099 2.103,4.646 7.966,2.877-2.877-2.212 1.658,10.291 0-1.217 1.107-2.435 1.66-2.988v5.422c1.107-1.217 2.767-2.988 3.319-4.205 .886,3.208 2.325,5.202-.221,8.077 0,.776 6.86-4.869 3.541,6.197 4.979-6.197 2.434,1.328 3.32,3.431 3.208-6.86 3.872-2.877 4.648,3.872 2.766-10.623-.443-5.532 5.532,2.103-2.103-9.515 3.098-7.966 3.098.665 .554,0 3.874-6.971 5.533-1.882l1.217,6.528c.552-1.217 3.872-2.877 3.872-4.205 2.213,1.328 2.213,5.754 3.874,7.525 1.217-2.766 1.66-18.7 5.532-6.86 2.103-3.431 1.328-5.312 3.32-2.435l2.212-2.434c.554.664 2.214,2.434 3.32,2.434 .554-16.708-.221-8.742 4.426-3.651 0-2.545-1.438-6.085 1.107-2.325 1.105-2.875.442-3.872 2.766-1.327l-.554-11.508s4.979,11.508 4.979,13.389c4.537-4.98.442-2.103 2.766-7.303-4.094-13.832-3.429-9.184 1.66-2.988-1.991-12.724-2.435-9.404 3.319-3.098 1.66,0 2.767.664 3.872,1.217-1.77-8.963-1.438-1.66 2.214-3.651-5.754-6.308 1.106-4.094 3.872-1.217h3.319c-6.638-7.192-7.745-4.094-2.212-5.975-5.754-6.308-1.771-3.763 1.66-3.763 0-1.771-4.979-5.974-5.533-7.745 1.659,1.771 3.873,4.205 6.085,2.988-2.877-3.32.334-1.217 1.108-1.217 0-6.197-1.992-2.435 2.766-2.435-10.291-11.176 3.319-2.988 2.212-2.988 .333-4.979-.221-6.197 2.214-3.651 0-1.106-.554-2.877-.554-4.205 .554.665 1.107,1.328 2.214,1.328 0-.664-2.214-3.651-1.66-3.098l-2.214-4.759c1.66,0 4.537,0 6.086-.663-2.212-4.869-7.191-7.303-12.172-7.303l-.552.555c-19.696,0-80.884-4.539-73.693-4.205l-19.939,15.82z" fill="#c0854e" stroke="#000" stroke-linecap="round" stroke-linejoin="round" stroke-miterlimit="2.4142" stroke-width=".216"/>
  <path d="m43.588,93.497h-1.106c0,10.29-10.511,21.134-1.107,31.535 0-2.435 1.66-10.4 1.107-11.619 0,4.869 1.106,14.605 3.872,17.594-.552-1.108.554-2.988 1.107-4.204-.554,4.204 2.212,8.519 2.212,12.17 2.103-4.648.997-4.314 2.766-1.217 2.877-6.197 1.548-2.435 2.766,2.323 0-5.754.665-3.652 1.66,4.759 3.21-3.542 0,1.88 4.537,6.638 .443-1.217.997-3.651 2.103-4.757 0,3.541 2.214,7.192 4.426,9.626-2.655-6.085-1.106-22.24 3.32-27.108l1.106,26.556c2.325-6.64 3.32-6.197 3.32,2.434l2.103.332c-.554-2.657-3.541-12.725.774-4.648 0-6.971 2.214-6.749 2.214-12.614 0,5.422 1.106,12.062 4.426,15.713v-7.857c3.872,10.734 1.328,7.083 6.528,12.725 .109,0-3.32-18.257-3.209-18.7 1.106-4.868 6.086-9.627 7.081-15.159 0,5.532-2.103,12.725-3.872,17.482-.997,3.651-1.549,13.831 3.429,15.712 0-4.204 0-9.072 1.66-12.724 2.656,2.986 1.66,8.52 4.426,11.506 1.66-3.651-.552-12.171.554-16.818 2.214,5.312 0,12.614 4.426,17.372 1.218-1.217-.332-3.874 1.106,3.098 4.647,0 1.66-9.183 4.426-1.77 0-3.099 2.768-10.402 2.214-12.171 2.213,4.869 4.426,16.929 6.085,18.81 0-1.217 1.106-3.098 1.106-3.651 2.768,0 3.873,4.205 4.426,6.085-.332-7.855-1.106-9.072 3.873-9.072 0-.665 2.214-5.533 3.32-4.868 0-1.217.552-2.435.552-3.651 10.845,0 10.623-17.262 17.151-9.074 .554-1.106.554-3.541.554-5.312 0,.774 8.077,4.869-6.64-24.341 2.214,2.434 4.979,4.313 7.193,6.747 0-2.986.441-1.879 2.212,0 0-4.868-1.771-6.195-2.766-11.505 1.106,1.216 3.319,2.323 4.979,3.539-1.882-1.99-2.103-4.535 1.106-1.216 0-6.528-2.103-3.319 1.659-1.107 1.771-3.653-.996-6.75-1.659-9.737 0-.663.663-1.218.663-1.771l2.768,2.986c-.886-2.212.331-5.642 2.101-4.867-7.191-7.855-4.868-6.085 2.103-1.217l-3.762-4.869c0-8.962 6.861-1.88-7.192-15.158 2.877,1.217 7.192,4.204 9.959,6.085-7.524-6.971-5.533-9.074-4.979-13.279 1.106.554 3.32,1.107 4.426,1.771-2.654-2.988-6.528-4.869-9.959-7.303 17.705,0-8.298-4.205-8.298-11.508 3.32,0 7.746,3.651 11.065,1.771-2.214-1.217-7.193-3.54-9.405-3.54 .552,0 1.66-.665 2.766-.665-2.654,0-2.766,0-2.766-2.986 1.106,0 1.66-.665 2.766-.665-4.757-5.864 1.992-1.992-7.191-6.639 1.66-.553 3.872,0 5.532,0-3.209-1.77-11.618-4.204-16.598-4.204 2.766-1.217 0-1.217-3.319-2.434 1.105-.665 2.214-1.217 3.319-.665l-3.873-1.769c3.541-.665 6.971-2.435.554-2.435 1.105-.665 3.319-.665 4.426-.665-5.754-3.541-19.475-1.66-26.003-2.323 6.308-3.429.554-1.328-3.872-1.328 1.66-1.77 6.085-3.651 8.297-3.651-1.105,0-2.766-.552-3.872-.552 2.212-1.217 5.532-1.217 8.297-1.771-5.531,0-10.511,1.771-15.601,1.771l1.66-1.439c-3.984,0-.333-1.66.109-2.212-3.429,0-4.646-.222-7.746-1.217l1.66-1.771c-4.978,0-8.963,1.771-13.277,2.988 0-1.771 2.103-3.542 3.32-4.869-4.759,2.543-8.52,3.32-12.836,7.966 0-1.88 1.217-4.314 1.217-6.085-5.421,3.651-.552-1.438-.552-5.422-8.853,7.968-2.988.443-.665-7.303l-8.852,10.845c-1.106-1.217-2.103-1.439-2.103,1.327-.664-1.88-1.217-6.195-1.77-7.966-2.767,9.405-3.651,5.754-8.299-.554 0,1.771.554,4.205.554,5.976-1.439,1.549-2.325-.443-4.979-2.988 1.88,4.758 2.988,4.206.554,6.64-1.66,0-2.213-1.771-3.319-2.988 0,4.868 2.655,7.634-3.874.554 0,4.314 3.874,8.52 3.874,13.388-2.768-2.988-4.98-7.856-8.299-11.508 0,.554 1.106,2.434 1.106,3.651-1.77.443-5.643.554-7.192-1.217 2.214,2.435 4.979,4.206 6.64,6.64 2.766,0 4.426,4.869 4.426,7.303-.554-.665-2.766-1.882-3.874-1.882 1.771,2.434 6.639,5.09 3.874,7.303-2.766,0-5.534-7.855-8.852-7.855 .552,1.217.552,1.217 0,2.434 0,0-1.108-1.217-1.66-1.217 .552.552 1.66,2.435 1.66,2.987-1.108.665-2.768.665-3.874.665 3.32,1.77 7.746,1.77 10.511,4.869-2.212,1.106-5.532-.665-7.746-1.882 0,.665.554,2.434-.552,1.882 1.106,1.106 3.872,2.434 5.532,2.987-.554,1.882.554,0 2.213-.553 .552,1.106 0,.553.552,1.771 1.66-1.55 2.766-3.542 2.766,0 2.436-2.325 2.768-2.988 2.768,1.217 3.429-5.312 1.106-3.099 3.319-.554 1.549-5.091-.222-1.328 3.318-1.328 0-2.435 0-7.192.554-9.074 .554,3.099 2.214,7.967 4.426,10.402 0-6.75 1.217-1.771 2.214-.664 2.323-4.427.663-2.436 2.766,0 0-.665.664-.665.664-.665 0-5.975 4.205-7.523 5.976-10.291 4.869-4.094 10.18-4.869 13.389,1.993 1.549,3.429 0,7.303.109,10.954-.884,3.651 1.882,10.511-.552,11.286-8.742,3.983-10.734,10.18-16.708,4.758-5.534,5.975-2.214,11.065-2.214,18.921 0-5.422-2.323-12.171-6.197-16.376 0,1.217.554,2.435.554,3.652l-1.66-1.771c-.552,1.217-.552,1.217 0,2.325-.552,0-1.106,0-1.106,1.217-.554,0-1.106.664-1.66.664v2.434c.554-.554 1.66,1.771 0,1.217 2.766,2.988 4.979,9.626 7.746,12.725-5.865,3.32-1.217,6.306-4.979,9.072-2.212,1.217-3.872,4.316-3.872,7.301 0-1.216-.554-2.433-.554-2.985 0-1.217.554-1.882 0-3.099l-1.66,1.882v-2.435c-.553,0-1.106-.665-1.66-.665-.552.665-1.106,1.882-1.66,2.434 0-.552-.552-1.77-.552-2.434l-.589.669z" fill="#cb8c53" stroke="#000" stroke-linecap="round" stroke-linejoin="round" stroke-miterlimit="2.4142" stroke-width=".216"/>
  <path d="m61.734,36.844c-.221-1.106-.995-.221-1.327-.332v-.222c-.774-1.549 6.971-7.081 7.855-8.52 .443-.884 1.108-1.991 1.66-2.655 3.762-4.979 8.631-2.988 11.508.111 3.541,3.872 4.648,4.535 3.32,10.732-.332,1.549 1.217,2.656 2.103,3.874-.554-.333-1.328-1.217-1.771-.333 .443.885 1.217,1.439 1.549,2.436 .222.552.774,3.983.774,2.986-.221-.22-1.327-1.217-1.327-.332-.333,1.106-.333,3.32.332,4.094 1.66,1.771 3.429,11.508 4.758,13.609-.886-.995-1.881-1.769-2.212-2.875-1.217-4.648-2.103,0-1.107,1.549l-.11.109c-.665,0-1.107-1.548-1.439-1.88-.774,0-1.217.222-1.771.774 0,.997 1.217,1.549 1.217,2.545-2.323-1.88-1.881-2.214-1.106.664-.442-.552-1.66-1.217-2.103-1.66-2.434,0-1.549.554-4.314-.109v.109c0,2.325 1.328,4.759.774,6.971 0-3.098-1.66-7.414-4.648-6.417-4.426,1.106-7.303,2.766-10.069-1.438 .222-.111.665-.554.885-.554 3.209,1.106 3.32,1.438 7.525-1.439 1.438-.884 3.208-1.992 4.535-2.986 2.877-2.214 4.094-.665 4.094-4.094-.221-1.771-.995-6.197-.332-11.619 .664-4.535.997-8.077-2.988-11.949-6.526-6.198-12.945,4.203-16.265,8.851z" fill="#a25802"/>
  <path d="m216.75,261.57c2.214-.443 5.423-.333 7.637-.333 1.438-1.549 3.317-.332 4.868-.332 1.549,1.549 4.868.554 6.086-.774 2.323,1.217 4.426,1.549 5.643,4.537 1.881,4.537 1.881,5.422.995,6.085-.884.554-.663.774-1.327-.442-.774,0-1.107.332-1.659.774-.774-.886-2.768-4.537-3.985-1.438 0-.222-1.991.332-1.769,5.532-3.32-.774 2.103-2.103-2.988-2.103 .442-1.991.665-7.303-2.766-5.643-1.66.665-2.546,4.316-2.546,6.086-.109-.332-.552-.886-.886-1.217-1.88,0-3.54,3.431-4.203,2.656 .995,1.327-1.107-16.156-6.197-4.205-.774-.774-.554-1.438-.554-2.434l1.107-1.438c-1.438-.554-1.107.221-2.434.221-.554-1.328 2.323-3.098 2.986-3.431 1.12-.45 1.34-1.22 2-2.11m-106.99-.22c.885,0 1.659-.663 2.324-.663 2.323-3.874 5.532-11.729 8.52-3.983 .553,1.438 2.877,1.438 3.872.995 2.103-.995 2.767-4.646 5.644-3.208 1.771.332 5.976,6.749 6.75,5.311 1.327,1.438 2.986,2.988 2.986,5.2-.331,0-.442,3.208-2.986,3.874-1.882.552.553,6.86-1.66,7.523-.442-.995-.222-2.545-.664-3.541-.995-2.877-3.318-4.648-5.2-6.528-.443,0-.886-.222-1.327.111 0,2.101.109,4.094-1.882,4.978-1.106,1.217-.774,3.762-1.217,5.202-1.218-.997 0-.774-.664-2.214-1.771.997-1.438,1.549-1.438,3.651-.664-.332-1.66-.774-1.66-1.66-.774-3.983 2.656-7.081 1.107-11.175-.774-1.882-3.984-2.877-5.754-2.103-6.971,2.877-1.106,3.762-2.103,8.298-.221,1.217-1.771.554-.554,2.103 0,.554 0,1.328-.221,1.882-.554-.222-1.771-1.55-2.323-1.107l-.996.885c-1.106,0 .442-6.749.442-7.966-2.323,0-1.66-.774-3.541,0 0-.554.332-1.108.332-1.439 1.1-.77 1.65-3.31 2.21-4.42m-31.206,7.08c-2.434,2.103-2.103,1.327-2.655,3.43 0,.222.663.442.774.442 .332-.332 4.869-4.869 5.2-4.979 1.991-.995 4.537-3.651 6.639-1.438 0,1.438-1.55,2.877-2.103,3.983 .886.443 2.103-.886 2.103-1.549 3.43-3.872 9.072-1.106 5.752,3.541-.332.222-1.217.222-1.548.554-1.106-.554-3.32-.554-4.094.22 1.439.443 2.988,0 2.656,2.768 .221,1.106.774.995 1.77.664 .665-.111 1.328-1.439 1.439-1.992 .774-2.213 4.094,0 5.643-.665 3.874-1.88 3.762-2.101 4.979-6.195l3.652-7.414c.552-.332.221-.885.221-1.66-2.877-.443-3.098-.554-3.209-4.206-.552,0-.886.111-1.328.554 0,2.655-1.327,2.323-2.435,2.103-.884,0-2.212,2.323-2.212,3.208-.554-.554-1.66-.663-2.323-.885-3.32-1.438-11.065-2.766-14.053.554 .885.443 4.537-.665 5.865,0 1.217,0 1.327.221 2.212,1.106-4.537,2.434-15.269-1.992-19.585,2.877 .665,1.217 3.099.332 4.206,1.66 .222,1.66-1.771.885-1.66,2.545 .895,1.68 1.892-.76 4.104.79" fill="#ac7746"/>
 </g>
</svg>
