<?xml version="1.0" encoding="UTF-8"?>
<svg enable-background="new 0 0 418.069 168.778" viewBox="0 0 418.069 168.778" xmlns="http://www.w3.org/2000/svg">
 <path d="m19.624,26.752c-4.162,4.361-8.736,6.29-8.736,12.011 0,6.672-4.113,8.995-7.643,14.195-7.228,10.647-1.613,22.67 9.281,28.117 7.927,3.963 10.128,1.449 16.379-1.911 4.992-2.684 7.516-2.794 13.649.273 5.563,2.782 11.428-3.535 16.378-.819 2.651,1.455 5.68,13.69 5.46,16.925-.353,5.183-7.499,12.668-9.555,18.835-2.939,8.819-5.083,17.208-9.827,25.114-2.382,3.971-5.482,12.285-10.646,12.285-7.298,0-13.222-2.73-16.925,6.551-1.702,4.268 1.305,9.428 6.552,10.373 2.787.502 5.759-1.638 8.735-1.638 3.833,0 11.265,1.465 14.741-.273 2.887-1.442 2.538-2.933 4.368-4.64 1.239-1.156-.784-1.96.546-3.276 .086-.086 2.915.77 3.822,0 5.583-4.737 9.261-10.898 14.741-16.379 9.79-9.788 16.774-19.353 22.93-31.666 2.355-4.709 7.942-16.15 14.195-16.925 1.79-.222 7.46,2.917 9.827,3.276 3.303.501 7.88,1.377 11.192.273 4.005-1.335 5.414-2.118 7.917,1.637 3.599,5.398 7.188,11.511 8.999,17.845 1.964,6.875 6.103,18.482 12.84,22.284 7.466,4.212 16.031.13 24.022,1.638 7.829,1.478 7.262,5.651 15.833,1.365 8.206-4.104-5.423-10.865-7.644-14.196-4.963-7.443-8.45-1.494-14.195-4.366-7.7-3.851-4.849-11.915-3.822-18.836 1.382-9.311 2-5.367 9.281-9.008 5.233-2.617 13.455-10.76 18.563-11.192 13.349-1.13 16.425,22.313 23.477,29.482 6.94,7.057 19.524,9.867 28.39,13.649 5.964,2.543 16.501,4.997 8.736,9.826-1.859,1.156-6.756,2.799-9.01,3.55-4.124,1.375-8.613,10.646-12.829,10.646-11.062,0-6.771,19.158-.546,13.103 4.505,2.299 12.775,0 18.563,0 3.4,0 4.262-1.973 5.732-4.914 1.5-3 6.45-1.437 7.644-3.821 4.323-8.647 17.328-8.911 23.75-14.741 6.873-6.241-1.163-10.629-1.639-18.563 9.741,2.079 17.688-.054 27.298-2.456 .85-.213 8.526,8.79 9.828,10.646 3.841,5.479 2.783,4.087-2.185,7.643-24.796,17.756 23.143,21.544 25.115,7.098 16.082,5.361 48.527,9.363 62.239-4.367 6.158-6.166.327-6.661-5.732-4.641-8.186,2.729-17.813,4.402-26.479,4.095-10.942-.388-22.931-1.638-28.936-10.646-4.533-6.8-9.869-14.465-10.92-22.657-.564-4.398 1.567-12.592-3.276-15.014-7.424-3.712-19.637-.805-24.021-6.278-3.225-4.025-3.932-11.139-6.279-15.833-3.08-6.161-6.043-12.347-9.588-18.256-6.623-11.039-13.652-20-22.623-28.97-16.572-16.574-46.129-16.404-67.58-20.305-23.462-4.266-46.427,8.616-69.184,3.651-9.383-2.047-17.161-6.551-27.025-6.551-10.7,0-20.29,4.705-30.301,7.643-3.944,1.158-11.227,4.174-15.287,3.276-5.238-1.159-2.001-5.057-6.552-6.552-5.103-1.677-17.74,5.036-17.471,10.374-3.363-.64-6.813-.987-9.828-2.73-2.996-1.732-7.094-9.238-10.373-6.005-1.028,1.013-.501,8.685-1.092,10.373-1.357,3.88-3.872,5.677-3.274,10.373m269.705,36.034c-5.416,5.416-4.936,6.232-.546,12.011 3.242,4.269 7.19,7.426 12.011,9.827-3.106-7.251-5.916-16.071-11.465-21.838" fill-rule="evenodd"/>
 <path d="m124.994,3.822c-1.511-.917-3.752-1.125-5.46-1.638 .942,9.068 8.567,8.813 12.558,15.287 2.254,3.657 5.459,14.824 5.459,19.382 0,5.021 7.215,12.288 10.374,15.014 2.491,2.15 4.642,3.286 6.551,6.005 1.83,2.607 1.601,5.275 4.914,7.098-7.116.004-6.66-8.517-12.557-10.919 2.741,5.261-.317,11.205 1.092,16.379-3.491-2.203-1.955-7.764-2.73-12.011-1.025-5.616-3.596-7.188-6.551-12.011-1.854-3.024-4.949-8.655-6.006-12.011-1.759-5.585.029-10.037-3.822-14.741-3.745-4.575-9.55-8.137-13.103-12.557-2.893-3.598-3.685-6.233-10.101-4.095-12.026,4.008-26.836,10.11-39.582,10.099 2.976,5.488-3.783,12.141.546,16.925-5.995,1.743.749-18.914-6.006-22.385-.704-.361-9.797,1.518-11.465,2.73-3.319,2.414-4.181,8.27-2.73,12.011-2.064-1.426-2.556-1.396-2.729-4.368-5.754.422-6.777,5.521-3.276,8.736-2.631.325-4.045-1.088-4.368-3.822-4.505,2.742.6,4.807 1.092,8.735-1.414-1.552-3.643-2.414-5.459-3.275 .576,1.797.136,2.521 1.092,3.821-4.01-2.182-7.276-2.752-9.828,2.73-3.243-5.374 4.371-7.099 9.282-9.554 2.902-1.451-3.836-5.187.546-5.187 3.17,0 5.733-1.555 7.098-4.368-6.08-.279-10.866-4.92-14.195-8.735 2.441,7.751-5.364,12.636-3.822,18.563 1.457-1.622 4.294-3.789 6.552-4.914-1.762,6.498-12.554,8.875-15.287,15.833-1.01,2.571.953,5.546 0,8.189-1.271,3.528-5.482,5.746-7.643,8.736-4.436,6.133-7.096,13.736 2.182,12.012-1.102.205 5.195-6.544 3.275-1.092-1.021,2.9-2.452,5.217-6.005,4.913 3.779,8.384 8.343,3.85 15.833,6.552-2.345.969-5.691,1.478-8.189,2.729 2.641,4.301 8.613,2.199 11.465,0 .527-.406-.396-2.699 0-3.275 1.021-1.486 1.812.797 2.729-.546 1.597-2.338 2.339-2.838 3.276-5.46 2.686,4.152 8.543,2.347 10.646,6.552 2.774,5.548 11.982-.555 16.106,0 5.969.802 5.185,2.897 6.551,8.189 1.018,3.937 1.709,8.332 3.549,12.011 1.392,2.784-3.011,5.622-4.641,8.188-5.079,8.003-6.621,17.682-9.555,26.479-2.366,7.099-8.685,12.731-12.011,19.382-2.651,5.303-26.959.627-21.565,13.104 1.771-1.884 3.786-3.585 6.005-4.368-.276,2.355-1.401,4.449-2.73,5.46 3.174,2.445 9.74,1.408 13.103-.273 6.089-3.044 6.333,3.702 12.011.273 2.396-1.447.627-4.351 2.73-6.006 1.938-1.526 4.587-.386 6.552-1.638 6.923-4.413 11.402-15.683 18.563-21.293-4.862-2.267-8.647-13.558-8.735-19.108h1.092c2.02,9.511 8.377,7.431 14.195,12.011-.467-4.839-5.208-7.062-5.459-12.011 6.276,3.374 7.85,7.445 12.557-1.092 4.821-8.748 8.301-17.079 16.378-22.385-3.053-1.513-15.179-.332-13.103-5.459 3.181,2.475 10.067,1.742 14.195,3.276 5.933,2.204 10.424,5.593 17.471,4.914-2.666-3.576-4.011-12.175-3.822-16.379 .12-2.679 1.775-4.962 1.638-8.189-.217-5.1-3.423-9.743-4.914-14.195 14.201,6.541-.267,36.255 11.465,38.764-.804-4.621-.667-12.162-2.73-16.379 3.645.546 2.73,4.082 2.73,7.371 0,5.561 1.809,2.798 3.549,6.278 .441.882 15.862.707 19.382,0-3.167,5.182-8.197,1.479-13.104,2.73 2.507,8.213 8.844,16.158 11.738,24.841 2.474,7.422 6.645,17.744 15.287,17.744 7.784,0 19.607-1.959 25.387,3.821 4.009,4.009 12.541-5.46 3.276-7.644-1.156,3.177-4.7,3.396-7.098,2.184 4.828-1.34 2.801-8.449-1.092-10.373-3.425-1.692-8.134,1.897-12.011-.546-9.462-5.96-1.722-30.54-1.092-39.309 .427-5.958 1.711-12.292-1.092-17.471-3.659-6.757-11.911-11.173-16.379-17.47-3.14-4.426-7.502-10.637-10.1-15.833-2.093-4.185-1.697-13.471-5.732-14.741 .208,2.746.354,5.381 0,7.644-2.664-4.077-2.803-9.355-6.552-13.103-4.395-4.399-7.247-4.335-7.641-11.466" fill="#ffb31c" fill-rule="evenodd"/>
 <path d="m50.197,33.304c-4.438-.375-2.67-5.504-7.097-5.459 .834,2.958 2.591,10.629 7.097,5.459" fill-rule="evenodd"/>
 <path d="m244.56,50.774c-.638,1.167-1.339,2.259-2.184,3.276-.332-2.674 1.183-6.32 1.092-9.828-.132-5.094-2.565-10.339-3.275-15.287-.954-6.644-1.323-12.368-4.368-18.563 5.664,1.267 5.865,12.392 7.098,17.471 1.941,8.003 6.27,15.07 1.637,22.931" fill-rule="evenodd"/>
 <path d="m335.74 135.4c-3.313 4.054-13.559 5.662-13.104 11.465 2.096-1.765 4.696-3.096 7.644-2.729-4.496 3.251-4.274 11.964 2.729 8.463 6.499-3.25 10.829-4.114 17.471-5.733-4.165-3.905-10.714-7.64-14.74-11.466" fill="#ffb31c" fill-rule="evenodd"/>
 <path d="m317.173,90.63c7.281.77 24.022-1.099 24.022,9.827 0,7.256.582,12 3.822,18.017 2.094,3.89 4.91,7.3 6.005,11.466-14.239-9.93-22.397-25.947-33.849-39.31" fill="#ffb31c" fill-rule="evenodd"/>
 <path d="m173.585,63.878c-2.347-8.628-2.386-13.783-7.644-21.293-4.88-6.969-2.828-14.839-8.735-21.838l1.092-.546c5.586,10.241 10.094,20.043 16.379,30.028 2.788-9.842-6.759-18.976-10.646-26.752-1.529-3.058-1.822-18.569-8.462-13.649 2.836,2.015 4.152,5.667 3.822,8.735-4.106-4.695-6.434-9.281-13.376-9.281-11.499,0 2.044,7.252 3.549,13.103-10.06-4.377-11.511-14.042-20.201-17.47-3.086,6.621 3.409,7.368 7.917,10.373 4.792,3.194 9.015,9.207 10.646,14.741 1.574,5.343.986,11.254 3.276,16.379 2.286,5.117 6.496,7.128 10.919,10.919 .318-4.31.239-7.369-1.092-11.465 1.947-.252 6.317,14.792 8.735,18.017 2.35,3.134 4.479,5.114 5.459,8.735 1.594,5.89-3.481,19 0,22.931 6.403-6.963 6.552-21.924 6.552-31.12 0-3.883-3.168-9.059-1.911-12.831 1.995-5.985.562-13.665-1.911-19.382 .493.129.857-.053 1.092-.546 6.373,7.576 3.073,23.568 6.005,33.304 2.526,8.386 1.604,17.12 4.914,25.114 6.609-9.183 1.125-21.999 3.822-31.666 3.477,4.244 6.33,16.099 4.367,21.292h-1.092c-.279-2.234-.869-4.333-1.092-6.551-.17,4.218-.766,8.295-1.092,12.557 13.488-7.859 18.912,5.555 25.114,16.925 3.615-4.458 3.999-9.37 9.828-12.284 4.163-2.082 10.739-13.487 13.103-17.744 2.479-4.465 5.359-8.633 7.098-13.103 1.844-4.741 1.908-8.273 5.46-12.557 .097,4.293-4.368,8.957-4.368,14.468 0,4.532-5.963,10.827-8.189,14.469-2.986,4.883-6.736,10.197-9.827,15.286-2.397,3.949-9.363,15.037-8.189,19.109 3.725,12.928 44.315,13.44 42.585,25.114-1.151,7.773-12.38,2.376-15.015,7.644-2.611,5.224-9.727,8.393-13.921,12.012-2.107,1.818-5.358,3.482-4.368,6.551 1.93,5.979 6.223-.913 8.189-3.275 .115,2.347-.175,3.273-2.184,5.459 4.28,1.231 8.437-.52 13.104-1.092 2.044-.25 4.841,2.33 6.278-.545 1.176-2.352 2.593-3.891 5.187-5.187 5.645-2.823 8.956-7.81 15.014-9.828 7.525-2.509 17.139-6.22 15.56-13.922-1.221-5.952-7.112-14.587-12.011-18.017-4.775-3.345-14.352-4.681-17.198-10.374-1.94-3.881-2.613-15.43-4.64-15.833-3.166-.63-11.336,7.865-13.649,9.827-3.645,3.089-7.269,6.231-10.373,9.828 .442-6.342 5.979-11.725 11.465-14.468 6.298-3.149 8.184-9.027 14.741-11.738 11.271-4.662 18.391-13.865 25.66-24.022 14.848,16.529 20.713,43.086 34.669,61.693 15.359,20.48 33.988,27.844 58.69,27.844 8.804,0 21.701-1.842 29.481-5.731 7.871-3.936.911-3.987-4.367-2.457-15.606,4.522-35.168,5.521-50.229-2.185-35.443-18.131-45.985-62.58-64.97-93.905-3.339,6.724-11.266,25.596-18.563,26.207 3.546-3.64 6.619-7.875 8.735-12.557 1.544-3.416 6.79-12.505 7.098-14.741 1.149-8.378-13.552-20.002-20.201-22.384 3.852,7.032 6.552,14.179 6.552,22.384 0,7.849-5.668,12.973-9.009,19.655-3.296,6.594-7.038,12.418-13.376,16.925-3.307,2.352-8.994,8.972-12.557,9.828 1.549-6.439 8.67-12.16 13.649-16.379 2.472-2.095 8.188-4.858 8.188-8.189 0-2.66 2.217-6.505 3.822-8.736 5.446-7.568 10.717-16.281 3.822-25.66-.819,5.102-1.384,9.126 0,14.195-7.869-.898-1.836-12.435-2.185-16.924-.245-3.168-3.156-8.13-6.005-9.555-2.986-1.493-10.944-7.933-9.281-1.365 .921,3.643 6.669,5.876 8.189,9.281 1.351,3.029 2.108,9.161 2.184,12.557 .131,5.902-5.633,30.079-10.92,30.028 4.306-7.034 5.936-18.743 7.098-25.66 1.268-7.549-.902-11.67-2.729-18.017-3.122,4.479 2.522,14.719-2.729,18.017-.229-10.421-1.897-27.399-12.558-32.758-4.732-2.378-14.615-4.662-10.646,3.276 2.309,4.618 6.282,10.761 7.37,15.833-7.213-4.377-8.866-18.529-17.472-22.93-3.764-1.925-12.285-2.567-12.011.546 .359,4.081 7.128,6.667 9.281,9.281-9.6-1.179-12.527-13.386-21.292-11.465 10.764,10.763 13.89,23.654 20.747,35.488-6.957-2.044-6.823-12.83-11.738-17.744-4.573-4.573-13.798-10.071-12.284-16.106 .535,3.074 2.361,6.669 6.551,7.097-2.692-5.743-8.807-13.023-15.833-8.735 3.041,3.414 6.716,5.707 9.281,9.554 2.329,3.495 2.238,8.026 4.095,11.738 1.851,3.705 4.64,4.6 4.64,9.281 0,4.824 1.522,8.793 3.822,13.104-.993.097-.788-.06-1.637.546-4.142-11.472-7.755-29.577-18.017-37.125-.356,3.033 3.46,6.212 4.913,9.281-6.616,1.462-6.654-9.116-9.827-12.557-3.807-4.129-9.854-1.693-14.741-.546 5.146,7.773 10.321,10.268 14.985,19.596 3.292,6.584 13.001,24.668 7.946,31.725-2.747-3.357-2.43-11.807-4.368-16.652-2.83-7.073-6.533-13.124-10.212-19.746-1.977-3.559-10.671-16.08-14.356-13.285 3.489,2.782 5.486,8.269 6.824,12.284 1.079,3.236 3.97,6.371 5.187,10.1 1.334,4.091 1.933,8.28 3.003,12.557 .974,3.896-1.139,4.388-1.365,6.552-.366,3.526 1.533,14.186-1.09,13.1" fill="#ffb31c" fill-rule="evenodd"/>
 <path d="m302.432,88.446c2.966,7.512 7.918,13.65 11.466,20.747 1.557,3.114 7.803,7.836 4.367,9.554-4.719,2.36-10.026,3.476-15.287,3.55-8.167.113-9.46-2.621-14.741-6.552-4.112-3.062-12.826-4.96-15.286-9.828-2.55-5.044.559-4.504 3.275-7.643 4.688-5.417 9.227-12.108 13.104-19.109 8.257,3.733-7.381,14.4-3.821,20.747 1.008-6.647 8.713-8.462 9.826-14.741l7.097,3.275" fill="#fff2a6" fill-rule="evenodd"/>
 <path d="m221.63,55.142c-1-3.534.545-8.034.545-12.011 0-2.105-3.684-8.375-4.367-11.465-1.417-6.406-4.408-11.696-6.551-17.47 8.317,6.41 15.321,14.731 14.74,26.752-2.296-5.055-2.61-12.748-7.098-15.833 2.384,5.612 9.861,26.144 2.731,30.027" fill-rule="evenodd"/>
 <path d="m279.5 30.028c0.347 9.482 3.954 18.633-2.184 27.844 6.711-4.412 8.688-25.819 2.184-27.844" fill-rule="evenodd"/>
 <path d="m279.501,90.084c-6.787.092-16.285,7.476-8.734,12.011-.71-6.514 8.745-6.198 8.734-12.011" fill="#fff2a6" fill-rule="evenodd"/>
 <path d="m269.13 90.084c1.261-9.278 11.302-11.818 16.38-16.925 7.207 9.237-8.322 16.112-16.38 16.925" fill="#fff2a6" fill-rule="evenodd"/>
 <path d="m126.632,48.591c-.146,2.077-2.76-.918-4.914-2.73-4.57-3.844-7.716-9.477-12.557-13.103-4.092-3.066-8.037-4.376-11.465-8.189 3.238-1.426 12.133,6.127 14.741,8.735 5.153,5.154 9.427,9.6 14.195,15.287" fill-rule="evenodd"/>
 <path d="m107.523,43.131c-5.537-3.932-8.271-8.314-14.741-10.919-8.851-3.563-17.083-9.345-22.93-18.016 2.988-.334 5.069,3.711 7.644,5.459 3.809,2.587 7.065,3.25 10.373,7.098 1.941-4.333-4.053-7.343-6.551-9.828 6.716.359 9.498,6.924 14.195,11.465 3.921,3.791 12.499,9.061 12.01,14.741" fill-rule="evenodd"/>
 <path d="m127.724,35.487c-2.751-8.017-4.472-12.037-9.828-17.471 .182.546 0,.728-.546.546 1.319,3.032 3.961,5.603 4.914,8.736-6.616-5.324-10.354-11.465-19.654-11.465-2.992,0-9.226.197-11.465-2.184-2.177-2.315-2.24-4.914 2.457-4.914 10.436,0 42.869,12.318 35.214,27.844-.339-.78-.582-.841-1.092-1.092" fill-rule="evenodd"/>
 <path d="m146.833,12.557c6.759,7.181 18.183,27.667 10.919,37.671-1.252-6.127-3.062-12.088-4.368-18.563-.468-2.319-.874-7.753-1.911-9.827-1.408-2.817-4.785-6.532-4.64-9.281" fill-rule="evenodd"/>
 <path d="m74.766,44.223c6.435-2.176 11.488,9.295 14.741,13.649 .947-3.304-2.695-5.552-3.822-8.735 5.345,2.38 9.735,1.254 13.649,6.551 1.218,1.649 1.773,4.183 2.73,5.46 1.203,1.605 3.691,2.885 4.913,4.914 1.788,2.964 3.481,8.011 1.638,12.011-1.473,3.196-7.143,8.29-9.827,5.459 4.944-2.679 9.9-7.857 7.097-14.195-1.262-2.854-11.04-14.576-14.195-15.287-.059,1.401-.097,3.784 0,4.914 4.6,1.842 14.557,12.353 11.465,16.925-.817-2.175-2.065-1.884-3.276-3.276-.775-.891-.836-2.848-1.638-3.822-2.174-2.642-4.463-7.014-6.006-8.189-2.755-2.101-5.959-2.137-8.735-5.46-3.198-3.829-4.167-7.032-8.734-10.919" fill-rule="evenodd"/>
 <path d="m100.426,93.905c-7.072,1.422-10.372,4.805-18.29,1.638-4.461-1.785-11.063-5.397-15.56-6.006 1.844,6.861 11.316,8.993 17.471,9.828 4.047.549 16.223-1.042 16.379-5.46" fill-rule="evenodd"/>
 <path d="m64.938,76.981c3.179.639 2.772,3.232 4.914,4.913 1.899,1.492 5.807,3.234 8.189,4.368 4.559,2.17 7.798,6.363 13.103,7.098-4.406,5.787-23.87-11.218-26.206-16.379" fill-rule="evenodd"/>
 <path d="m179.59 93.905c4.103-7.021 3.823-17.718 3.823-25.66 2.67 3.703 1.586 8.377 2.184 13.103 1.09 8.634 3.823 9.281-6.007 12.557" fill="#fff2a6" fill-rule="evenodd"/>
 <path d="m138.097,95.543c4.451,10.822 12.204,21.029 16.379,31.666-.509-4.247-2.464-9.565-4.368-13.103 1.983.852 3.953,2.438 5.459,4.367-.676-2.918-3.708-5.381-4.367-8.189-.705-3.002 1.551-2.779.546-6.006-1.748-5.608-7.86-10.618-13.649-8.735" fill="#fff2a6" fill-rule="evenodd"/>
 <path d="m94.966,98.273c-3.063,4.325-5.316,8.693-6.005,13.103-2.723-.895-2.758,1.148-4.095,3.822-2.607,5.215-2.485-.092-2.457,0-.396-1.289 1.948-5.675 0-6.552-.599-.27-3.181,5.883-3.276,6.006-1.646-11.565-6.135,4.311-7.644,5.459-.122-5.369-1.499-13.024-4.367-4.913-1.231,3.479 1.513,15.813-3.822,12.011-.632,4.005.149,9.594-2.184,13.104-2.405,3.617-5.245,3.938-7.371,8.189-2.298,4.596-5.902,5.865-5.733.546 .182-5.708 4.975-10.916 4.914-16.925 .414,3.771 4.368,9.122 4.368,2.184 0-3.942-.482-8.928.819-12.83 1.643-4.93 10.67-27.909 16.106-14.468 1.93-.919 3.181-1.819 3.822-4.367 1.494,4.366 12.477-1.137 16.925-4.369" fill="#fff2a6" fill-rule="evenodd"/>
 <path d="m25.629 50.774c-11.065-3.023 4.479-18.348 12.011-15.287 4.897 1.99 2.983 8.67 0 12.011-3.45 3.866-7.087 3.276-12.011 3.276" fill="#fff2a6" fill-rule="evenodd"/>
 <path d="m23.445,49.683c2.08-5.916 1.128-7.644 7.644-7.644 4.056,0-.652,9.874-4.914,5.459-.445,1.827-1.84,1.361-2.73,2.185" fill-rule="evenodd"/>
 <path d="m26.721 45.315c0-2.826 4.368-2.826 4.368 0s-4.368 2.826-4.368 0" fill="#bf0000" fill-rule="evenodd"/>
 <path d="m26.175 45.315c1.092-1.456 2.184-1.456 3.276 0-1.092 1.456-2.184 1.456-3.276 0" fill-rule="evenodd"/>
 <path d="m51.289 24.568c-7.958-7.758 3.846-15.235 9.281-16.379 1.527 6.366 3.452 7.622 2.73 13.649-1.65 13.783-2.315 3.382-12.011 2.73" fill="#fff2a6" fill-rule="evenodd"/>
 <path d="m57.295,31.12c3.02-4.592.813-6.716-3.276-8.189 1.021-.865 1.247-2.133 1.638-2.729-.735.941-1.965,1.674-2.73,3.276-4.657-5.826 5.662-6.2 7.097-10.374 1.505,2.342 2.39,17.359-2.729,18.016" fill-rule="evenodd"/>
 <path d="m10.342,68.791c3.129-1.104 7.36,1.338 10.374,0 4.519-2.006 1.749-5.458 3.822-9.281 3.861-7.122 15.393-5.786 21.838-9.008 6.867-3.433 11.661-9.675 18.563-1.911 3.619,4.071 2.848,17.174 9.281,16.379-3.522,2.653-9.313-1.26-11.465-4.914 3.569,2.637 8.964,9.002 10.373,13.104-2.624-.167-5.016-1.826-7.097-3.276 5.917,6.74.794,5.33-5.46,4.368-5.917-.911-10.903-1.345-13.649-7.098 2.648,9.706 1.623,6.13-4.914,4.914-4.234-.788-8.659,1.888-12.557-2.73-2.674,5.054-23.296,10.216-24.022.546 1.505-.335 3.392-1.206 4.913-1.093" fill="#fff2a6" fill-rule="evenodd"/>
 <path d="m14.164 79.165c13.254 5.586 7.283-8.139 0 0" fill="#fff2a6" fill-rule="evenodd"/>
 <path d="m47.467,74.251c3.551-2.823-2.629-19.9-4.095-24.295-.803-2.409-1.664-5.215-4.094-4.641-5.249,1.241.844,3.836.546,5.459-1.347,7.324-2.267-2.896-8.735-1.092 1.958-2.824 3.761-3.443 3.275-7.098-.486-3.662-6.92-2.632-2.729-7.098 1.337,2.135 4.914,2.25 4.914,4.368 0,3.497 4.506-2.33 6.006-2.73-3.728,6.907 6.005,13.793 6.005,21.565 0,4.145 4.544,4.358 4.914,8.462 .312,3.475-3.725,8.517-6.007,7.1" fill-rule="evenodd"/>
 <path d="m36.002,66.607c-1.039-1.85-1.992-5.286-5.459-4.368 1.405,2.148 1.527,2.856-1.092,3.822-.324-4.086-5.408-3.92-3.822-8.189 1.99,2.02 3.902,3.655 6.006,3.822-1.731-1.973-1.131-2.616-1.638-4.368 4.68,3.521 6.187,2.329 9.827-1.638 1.706,4.227-2.727,6.635-3.822,10.919" fill-rule="evenodd"/>
 <path d="m56.203 73.159c13.032-9.522-2.299-24.855-11.465-31.666 9.901-3.252 14.481 11.116 18.563 16.925 2.328 3.312 5.9 6.925 3.822 10.919-1.074 2.062-11.048 6.846-10.92 3.822" fill-rule="evenodd"/>
 <path d="m91.69,79.71c-4.63.256-9.575-1.936-12.011-6.005-1.3-2.171.755-5.355-2.184-6.825-2.195-1.098-2.902,3.606-2.73,5.187h-1.092c-1.16-5.645-.759-11.777-4.368-16.379 4.76,1.585 6.683,8.782 9.827,12.557 3.783-4.428 3.206,2.357 4.914,4.914 1.921,2.875 6.02,3.711 7.644,6.551" fill-rule="evenodd"/>
 <path d="m189.964,90.084c-.039-3.202-1.252-6.631-1.638-9.828-.513-4.249-.173-9.287-2.183-12.557 4.161,5.844 5.362-3.407 7.097,4.368 1.236,5.539-.511,13.236-3.276,18.017" fill="#fff2a6" fill-rule="evenodd"/>
 <path d="m224.359,109.738c6.104,9.661 23.305,13.607 33.304,15.287-1.297-1.673-3.69-3.21-6.006-4.368-3.488-1.744-2.271-2.762-3.275-4.367-.755-1.207 2.046-2.253-1.638-4.095-1.813-.906-5.062-.272-7.098-.272-11.276,0-4.885-17.175-6.552-20.748-3.134,5.044-6.337,13.161-8.735,18.563" fill="#fff2a6" fill-rule="evenodd"/>
 <path d="m195.969,63.332c4.46,2.684 7.073.888 10.919,1.092 4.639.246 9.038,3.481 13.649,1.638 10.153-4.061 5.328-25.279 14.74-26.752 .26,5.77-2.184,10.912-2.184,16.652 0,6.48 1.991,12.738 1.638,18.835-1.2-.698-2.639-.624-3.821-1.638-1.159,1.262-1.74,4.862 1.092,6.278 4.457,2.229 2.915,3.076.546,6.825-2.945,4.659-8.941,11.425-12.558,15.287-7.207-5.655-10.438-29.427-25.114-15.833l1.092-12.557c.729,2.184 1.456,4.368 2.184,6.551 1.528-5.637-.485-10.863-2.183-16.378" fill="#fff2a6" fill-rule="evenodd"/>
 <path d="m206.342,32.758c3.38,8.737 18.66,30.212 5.459,37.671 1.497-5.093 4.496-18.461-1.638-21.838-2.346,9.498 4.928,19.943-4.914,28.39-.435-4.582 3.013-7.39 3.276-12.011 .192-3.367-1.818-7.007-1.638-10.919s2.124-7.275 1.638-10.919c-.488-3.678-4.976-9.368-2.183-10.374" fill-rule="evenodd"/>
 <path d="m213.985,86.809c-1.927-5.278 4.373-11.224 6.553-15.833 2.229-4.714.559-11.259 3.821-15.833 0,6.728-.487,12.401-2.729,16.925-1.739,3.506-4.419,12.226-7.645,14.741" fill-rule="evenodd"/>
 <path d="m227.09,62.24c0-8.171-.063-14.803 2.184-22.384 .992-3.35 2.083-3.51 1.638-7.098-.616-4.951-5.004-8.096-4.368-13.649 2.391.857 3.95,6.656 5.46,9.828 2.674,5.615 2.719,5.481-.273,11.465-2.013,4.026-3.283,6.386-3.548,10.919-.212,3.58 2.112,9.963-1.093,10.919" fill-rule="evenodd"/>
 <path d="m233.095,74.251c-.611.34-1.491.628-2.184,1.092 3.283-4.92 5.095-8.55 6.278-14.468 .743-3.713.1-9.077 3.003-10.646-1.246,4.038.546,7.999.546,12.011 0,4.903-4.121,8.822-7.643,12.011" fill-rule="evenodd"/>
 <path d="m175.22 95.543c4.664-6.832 3.584-16.005 6.005-22.384-2.411 4.32-10.61 16.857-6.005 22.384" fill="#fff2a6" fill-rule="evenodd"/>
 <path d="m295.334,85.17c9.075,4.188 9.771,11.318 15.288,18.563-2.732-.925-5.945-2.829-8.19-3.822-.68,1.941-1.071,4.287-1.092,6.552 .109-1.081-.073-2.191 0-3.276-4.363,6.605-8.045-13.211-14.195-7.643 2.334-4.665 5.98-5.727 8.189-10.374" fill="#ffb31c" fill-rule="evenodd"/>
 <path d="m289.33 79.165c3.226 2.52 2.045 6.681 0 9.828-1.672-3.269-1.98-6.657 0-9.828" fill="#ffb31c" fill-rule="evenodd"/>
</svg>
